ISO-10303-21;
HEADER;
FILE_DESCRIPTION(('FreeCAD Model'),'2;1');
FILE_NAME('Open CASCADE Shape Model','2026-09-20T06:08:32',(''),(''),
  'Open CASCADE STEP processor 7.8','FreeCAD','Unknown');
FILE_SCHEMA((
'AP242_MANAGED_MODEL_BASED_3D_ENGINEERING_MIM_LF. {1 0 10303 442 1 1 4 
}'));
ENDSEC;
DATA;
#1 = APPLICATION_PROTOCOL_DEFINITION('international standard',
  'ap242_managed_model_based_3d_engineering',2013,#2);
#2 = APPLICATION_CONTEXT('Managed model based 3d engineering');
#3 = SHAPE_DEFINITION_REPRESENTATION(#4,#10);
#4 = PRODUCT_DEFINITION_SHAPE('','',#5);
#5 = PRODUCT_DEFINITION('design','',#6,#9);
#6 = PRODUCT_DEFINITION_FORMATION('','',#7);
#7 = PRODUCT('M20','M20','',(#8));
#8 = PRODUCT_CONTEXT('',#2,'mechanical');
#9 = PRODUCT_DEFINITION_CONTEXT('part definition',#2,'design');
#10 = SHAPE_REPRESENTATION('',(#11,#15,#19),#23);
#11 = AXIS2_PLACEMENT_3D('',#12,#13,#14);
#12 = CARTESIAN_POINT('',(0.,0.,0.));
#13 = DIRECTION('',(0.,0.,1.));
#14 = DIRECTION('',(1.,0.,-0.));
#15 = AXIS2_PLACEMENT_3D('',#16,#17,#18);
#16 = CARTESIAN_POINT('',(0.,0.,0.));
#17 = DIRECTION('',(0.,0.,1.));
#18 = DIRECTION('',(1.,0.,0.));
#19 = AXIS2_PLACEMENT_3D('',#20,#21,#22);
#20 = CARTESIAN_POINT('',(0.,0.,0.));
#21 = DIRECTION('',(0.,0.,1.));
#22 = DIRECTION('',(1.,0.,0.));
#23 = ( GEOMETRIC_REPRESENTATION_CONTEXT(3) 
GLOBAL_UNCERTAINTY_ASSIGNED_CONTEXT((#27)) GLOBAL_UNIT_ASSIGNED_CONTEXT(
(#24,#25,#26)) REPRESENTATION_CONTEXT('Context #1',
  '3D Context with UNIT and UNCERTAINTY') );
#24 = ( LENGTH_UNIT() NAMED_UNIT(*) SI_UNIT(.MILLI.,.METRE.) );
#25 = ( NAMED_UNIT(*) PLANE_ANGLE_UNIT() SI_UNIT($,.RADIAN.) );
#26 = ( NAMED_UNIT(*) SI_UNIT($,.STERADIAN.) SOLID_ANGLE_UNIT() );
#27 = UNCERTAINTY_MEASURE_WITH_UNIT(LENGTH_MEASURE(1.E-06),#24,
  'distance_accuracy_value','confusion accuracy');
#28 = PRODUCT_RELATED_PRODUCT_CATEGORY('part',$,(#7));
#29 = SHAPE_DEFINITION_REPRESENTATION(#30,#36);
#30 = PRODUCT_DEFINITION_SHAPE('','',#31);
#31 = PRODUCT_DEFINITION('design','',#32,#35);
#32 = PRODUCT_DEFINITION_FORMATION('','',#33);
#33 = PRODUCT('Pin','Pin','',(#34));
#34 = PRODUCT_CONTEXT('',#2,'mechanical');
#35 = PRODUCT_DEFINITION_CONTEXT('part definition',#2,'design');
#36 = SHAPE_REPRESENTATION('',(#11,#37,#379),#721);
#37 = MANIFOLD_SOLID_BREP('',#38);
#38 = CLOSED_SHELL('',(#39,#79,#110,#141,#172,#203,#227,#251,#268,#292,
    #314,#338,#355,#367));
#39 = ADVANCED_FACE('',(#40),#74,.T.);
#40 = FACE_BOUND('',#41,.T.);
#41 = EDGE_LOOP('',(#42,#52,#60,#68));
#42 = ORIENTED_EDGE('',*,*,#43,.T.);
#43 = EDGE_CURVE('',#44,#46,#48,.T.);
#44 = VERTEX_POINT('',#45);
#45 = CARTESIAN_POINT('',(-0.32,0.32,-2.5));
#46 = VERTEX_POINT('',#47);
#47 = CARTESIAN_POINT('',(-0.32,-0.32,-2.5));
#48 = LINE('',#49,#50);
#49 = CARTESIAN_POINT('',(-0.32,0.12,-2.5));
#50 = VECTOR('',#51,1.);
#51 = DIRECTION('',(0.,-1.,0.));
#52 = ORIENTED_EDGE('',*,*,#53,.F.);
#53 = EDGE_CURVE('',#54,#46,#56,.T.);
#54 = VERTEX_POINT('',#55);
#55 = CARTESIAN_POINT('',(-0.32,-0.32,8.14));
#56 = LINE('',#57,#58);
#57 = CARTESIAN_POINT('',(-0.32,-0.32,8.64));
#58 = VECTOR('',#59,1.);
#59 = DIRECTION('',(-0.,-0.,-1.));
#60 = ORIENTED_EDGE('',*,*,#61,.F.);
#61 = EDGE_CURVE('',#62,#54,#64,.T.);
#62 = VERTEX_POINT('',#63);
#63 = CARTESIAN_POINT('',(-0.32,0.32,8.14));
#64 = LINE('',#65,#66);
#65 = CARTESIAN_POINT('',(-0.32,0.32,8.14));
#66 = VECTOR('',#67,1.);
#67 = DIRECTION('',(0.,-1.,0.));
#68 = ORIENTED_EDGE('',*,*,#69,.T.);
#69 = EDGE_CURVE('',#62,#44,#70,.T.);
#70 = LINE('',#71,#72);
#71 = CARTESIAN_POINT('',(-0.32,0.32,8.64));
#72 = VECTOR('',#73,1.);
#73 = DIRECTION('',(-0.,-0.,-1.));
#74 = PLANE('',#75);
#75 = AXIS2_PLACEMENT_3D('',#76,#77,#78);
#76 = CARTESIAN_POINT('',(-0.32,0.32,8.64));
#77 = DIRECTION('',(-1.,0.,0.));
#78 = DIRECTION('',(0.,-1.,0.));
#79 = ADVANCED_FACE('',(#80),#105,.F.);
#80 = FACE_BOUND('',#81,.F.);
#81 = EDGE_LOOP('',(#82,#90,#91,#99));
#82 = ORIENTED_EDGE('',*,*,#83,.F.);
#83 = EDGE_CURVE('',#44,#84,#86,.T.);
#84 = VERTEX_POINT('',#85);
#85 = CARTESIAN_POINT('',(-0.12,0.12,-3.));
#86 = LINE('',#87,#88);
#87 = CARTESIAN_POINT('',(-0.193333333333,0.193333333333,-2.816666666667
    ));
#88 = VECTOR('',#89,1.);
#89 = DIRECTION('',(0.348155311911,-0.348155311911,-0.870388279778));
#90 = ORIENTED_EDGE('',*,*,#43,.T.);
#91 = ORIENTED_EDGE('',*,*,#92,.T.);
#92 = EDGE_CURVE('',#46,#93,#95,.T.);
#93 = VERTEX_POINT('',#94);
#94 = CARTESIAN_POINT('',(-0.12,-0.12,-3.));
#95 = LINE('',#96,#97);
#96 = CARTESIAN_POINT('',(-0.205454545455,-0.205454545455,
    -2.786363636364));
#97 = VECTOR('',#98,1.);
#98 = DIRECTION('',(0.348155311911,0.348155311911,-0.870388279778));
#99 = ORIENTED_EDGE('',*,*,#100,.F.);
#100 = EDGE_CURVE('',#84,#93,#101,.T.);
#101 = LINE('',#102,#103);
#102 = CARTESIAN_POINT('',(-0.12,0.12,-3.));
#103 = VECTOR('',#104,1.);
#104 = DIRECTION('',(0.,-1.,0.));
#105 = PLANE('',#106);
#106 = AXIS2_PLACEMENT_3D('',#107,#108,#109);
#107 = CARTESIAN_POINT('',(-0.22,0.12,-2.75));
#108 = DIRECTION('',(0.928476690885,0.,0.371390676354));
#109 = DIRECTION('',(0.,-1.,0.));
#110 = ADVANCED_FACE('',(#111),#136,.T.);
#111 = FACE_BOUND('',#112,.T.);
#112 = EDGE_LOOP('',(#113,#114,#122,#130));
#113 = ORIENTED_EDGE('',*,*,#69,.F.);
#114 = ORIENTED_EDGE('',*,*,#115,.F.);
#115 = EDGE_CURVE('',#116,#62,#118,.T.);
#116 = VERTEX_POINT('',#117);
#117 = CARTESIAN_POINT('',(0.32,0.32,8.14));
#118 = LINE('',#119,#120);
#119 = CARTESIAN_POINT('',(0.32,0.32,8.14));
#120 = VECTOR('',#121,1.);
#121 = DIRECTION('',(-1.,0.,0.));
#122 = ORIENTED_EDGE('',*,*,#123,.T.);
#123 = EDGE_CURVE('',#116,#124,#126,.T.);
#124 = VERTEX_POINT('',#125);
#125 = CARTESIAN_POINT('',(0.32,0.32,-2.5));
#126 = LINE('',#127,#128);
#127 = CARTESIAN_POINT('',(0.32,0.32,8.64));
#128 = VECTOR('',#129,1.);
#129 = DIRECTION('',(-0.,-0.,-1.));
#130 = ORIENTED_EDGE('',*,*,#131,.T.);
#131 = EDGE_CURVE('',#124,#44,#132,.T.);
#132 = LINE('',#133,#134);
#133 = CARTESIAN_POINT('',(0.12,0.32,-2.5));
#134 = VECTOR('',#135,1.);
#135 = DIRECTION('',(-1.,0.,0.));
#136 = PLANE('',#137);
#137 = AXIS2_PLACEMENT_3D('',#138,#139,#140);
#138 = CARTESIAN_POINT('',(0.32,0.32,8.64));
#139 = DIRECTION('',(0.,1.,0.));
#140 = DIRECTION('',(-1.,0.,0.));
#141 = ADVANCED_FACE('',(#142),#167,.T.);
#142 = FACE_BOUND('',#143,.T.);
#143 = EDGE_LOOP('',(#144,#145,#153,#161));
#144 = ORIENTED_EDGE('',*,*,#53,.T.);
#145 = ORIENTED_EDGE('',*,*,#146,.T.);
#146 = EDGE_CURVE('',#46,#147,#149,.T.);
#147 = VERTEX_POINT('',#148);
#148 = CARTESIAN_POINT('',(0.32,-0.32,-2.5));
#149 = LINE('',#150,#151);
#150 = CARTESIAN_POINT('',(-0.32,-0.32,-2.5));
#151 = VECTOR('',#152,1.);
#152 = DIRECTION('',(1.,0.,0.));
#153 = ORIENTED_EDGE('',*,*,#154,.F.);
#154 = EDGE_CURVE('',#155,#147,#157,.T.);
#155 = VERTEX_POINT('',#156);
#156 = CARTESIAN_POINT('',(0.32,-0.32,8.14));
#157 = LINE('',#158,#159);
#158 = CARTESIAN_POINT('',(0.32,-0.32,8.64));
#159 = VECTOR('',#160,1.);
#160 = DIRECTION('',(-0.,-0.,-1.));
#161 = ORIENTED_EDGE('',*,*,#162,.F.);
#162 = EDGE_CURVE('',#54,#155,#163,.T.);
#163 = LINE('',#164,#165);
#164 = CARTESIAN_POINT('',(-0.32,-0.32,8.14));
#165 = VECTOR('',#166,1.);
#166 = DIRECTION('',(1.,0.,0.));
#167 = PLANE('',#168);
#168 = AXIS2_PLACEMENT_3D('',#169,#170,#171);
#169 = CARTESIAN_POINT('',(-0.32,-0.32,8.64));
#170 = DIRECTION('',(0.,-1.,0.));
#171 = DIRECTION('',(1.,0.,0.));
#172 = ADVANCED_FACE('',(#173),#198,.T.);
#173 = FACE_BOUND('',#174,.T.);
#174 = EDGE_LOOP('',(#175,#183,#184,#192));
#175 = ORIENTED_EDGE('',*,*,#176,.F.);
#176 = EDGE_CURVE('',#62,#177,#179,.T.);
#177 = VERTEX_POINT('',#178);
#178 = CARTESIAN_POINT('',(-0.12,0.12,8.64));
#179 = LINE('',#180,#181);
#180 = CARTESIAN_POINT('',(-0.193333333333,0.193333333333,8.456666666667
    ));
#181 = VECTOR('',#182,1.);
#182 = DIRECTION('',(0.348155311911,-0.348155311911,0.870388279778));
#183 = ORIENTED_EDGE('',*,*,#61,.T.);
#184 = ORIENTED_EDGE('',*,*,#185,.T.);
#185 = EDGE_CURVE('',#54,#186,#188,.T.);
#186 = VERTEX_POINT('',#187);
#187 = CARTESIAN_POINT('',(-0.12,-0.12,8.64));
#188 = LINE('',#189,#190);
#189 = CARTESIAN_POINT('',(-0.193333333333,-0.193333333333,
    8.456666666667));
#190 = VECTOR('',#191,1.);
#191 = DIRECTION('',(0.348155311911,0.348155311911,0.870388279778));
#192 = ORIENTED_EDGE('',*,*,#193,.F.);
#193 = EDGE_CURVE('',#177,#186,#194,.T.);
#194 = LINE('',#195,#196);
#195 = CARTESIAN_POINT('',(-0.12,0.32,8.64));
#196 = VECTOR('',#197,1.);
#197 = DIRECTION('',(0.,-1.,0.));
#198 = PLANE('',#199);
#199 = AXIS2_PLACEMENT_3D('',#200,#201,#202);
#200 = CARTESIAN_POINT('',(-0.22,0.32,8.39));
#201 = DIRECTION('',(-0.928476690885,0.,0.371390676354));
#202 = DIRECTION('',(0.,-1.,0.));
#203 = ADVANCED_FACE('',(#204),#222,.F.);
#204 = FACE_BOUND('',#205,.T.);
#205 = EDGE_LOOP('',(#206,#214,#215,#216));
#206 = ORIENTED_EDGE('',*,*,#207,.T.);
#207 = EDGE_CURVE('',#208,#84,#210,.T.);
#208 = VERTEX_POINT('',#209);
#209 = CARTESIAN_POINT('',(0.12,0.12,-3.));
#210 = LINE('',#211,#212);
#211 = CARTESIAN_POINT('',(0.12,0.12,-3.));
#212 = VECTOR('',#213,1.);
#213 = DIRECTION('',(-1.,0.,0.));
#214 = ORIENTED_EDGE('',*,*,#83,.F.);
#215 = ORIENTED_EDGE('',*,*,#131,.F.);
#216 = ORIENTED_EDGE('',*,*,#217,.F.);
#217 = EDGE_CURVE('',#208,#124,#218,.T.);
#218 = LINE('',#219,#220);
#219 = CARTESIAN_POINT('',(0.181212121212,0.181212121212,-2.84696969697)
  );
#220 = VECTOR('',#221,1.);
#221 = DIRECTION('',(0.348155311911,0.348155311911,0.870388279778));
#222 = PLANE('',#223);
#223 = AXIS2_PLACEMENT_3D('',#224,#225,#226);
#224 = CARTESIAN_POINT('',(0.12,0.22,-2.75));
#225 = DIRECTION('',(0.,-0.928476690885,0.371390676354));
#226 = DIRECTION('',(1.,0.,0.));
#227 = ADVANCED_FACE('',(#228),#246,.F.);
#228 = FACE_BOUND('',#229,.F.);
#229 = EDGE_LOOP('',(#230,#231,#232,#240));
#230 = ORIENTED_EDGE('',*,*,#207,.T.);
#231 = ORIENTED_EDGE('',*,*,#100,.T.);
#232 = ORIENTED_EDGE('',*,*,#233,.T.);
#233 = EDGE_CURVE('',#93,#234,#236,.T.);
#234 = VERTEX_POINT('',#235);
#235 = CARTESIAN_POINT('',(0.12,-0.12,-3.));
#236 = LINE('',#237,#238);
#237 = CARTESIAN_POINT('',(-0.32,-0.12,-3.));
#238 = VECTOR('',#239,1.);
#239 = DIRECTION('',(1.,0.,0.));
#240 = ORIENTED_EDGE('',*,*,#241,.T.);
#241 = EDGE_CURVE('',#234,#208,#242,.T.);
#242 = LINE('',#243,#244);
#243 = CARTESIAN_POINT('',(0.12,-0.32,-3.));
#244 = VECTOR('',#245,1.);
#245 = DIRECTION('',(0.,1.,0.));
#246 = PLANE('',#247);
#247 = AXIS2_PLACEMENT_3D('',#248,#249,#250);
#248 = CARTESIAN_POINT('',(-1.E-17,-1.E-17,-3.));
#249 = DIRECTION('',(0.,0.,1.));
#250 = DIRECTION('',(1.,0.,0.));
#251 = ADVANCED_FACE('',(#252),#263,.F.);
#252 = FACE_BOUND('',#253,.T.);
#253 = EDGE_LOOP('',(#254,#255,#261,#262));
#254 = ORIENTED_EDGE('',*,*,#233,.T.);
#255 = ORIENTED_EDGE('',*,*,#256,.T.);
#256 = EDGE_CURVE('',#234,#147,#257,.T.);
#257 = LINE('',#258,#259);
#258 = CARTESIAN_POINT('',(0.193333333333,-0.193333333333,
    -2.816666666667));
#259 = VECTOR('',#260,1.);
#260 = DIRECTION('',(0.348155311911,-0.348155311911,0.870388279778));
#261 = ORIENTED_EDGE('',*,*,#146,.F.);
#262 = ORIENTED_EDGE('',*,*,#92,.T.);
#263 = PLANE('',#264);
#264 = AXIS2_PLACEMENT_3D('',#265,#266,#267);
#265 = CARTESIAN_POINT('',(-0.32,-0.22,-2.75));
#266 = DIRECTION('',(0.,0.928476690885,0.371390676354));
#267 = DIRECTION('',(-1.,-0.,-0.));
#268 = ADVANCED_FACE('',(#269),#287,.T.);
#269 = FACE_BOUND('',#270,.T.);
#270 = EDGE_LOOP('',(#271,#279,#280,#281));
#271 = ORIENTED_EDGE('',*,*,#272,.F.);
#272 = EDGE_CURVE('',#116,#273,#275,.T.);
#273 = VERTEX_POINT('',#274);
#274 = CARTESIAN_POINT('',(0.12,0.12,8.64));
#275 = LINE('',#276,#277);
#276 = CARTESIAN_POINT('',(0.193333333333,0.193333333333,8.456666666667)
  );
#277 = VECTOR('',#278,1.);
#278 = DIRECTION('',(-0.348155311911,-0.348155311911,0.870388279778));
#279 = ORIENTED_EDGE('',*,*,#115,.T.);
#280 = ORIENTED_EDGE('',*,*,#176,.T.);
#281 = ORIENTED_EDGE('',*,*,#282,.F.);
#282 = EDGE_CURVE('',#273,#177,#283,.T.);
#283 = LINE('',#284,#285);
#284 = CARTESIAN_POINT('',(0.32,0.12,8.64));
#285 = VECTOR('',#286,1.);
#286 = DIRECTION('',(-1.,0.,0.));
#287 = PLANE('',#288);
#288 = AXIS2_PLACEMENT_3D('',#289,#290,#291);
#289 = CARTESIAN_POINT('',(0.32,0.22,8.39));
#290 = DIRECTION('',(0.,0.928476690885,0.371390676354));
#291 = DIRECTION('',(-1.,0.,0.));
#292 = ADVANCED_FACE('',(#293),#309,.T.);
#293 = FACE_BOUND('',#294,.T.);
#294 = EDGE_LOOP('',(#295,#296,#302,#303));
#295 = ORIENTED_EDGE('',*,*,#154,.T.);
#296 = ORIENTED_EDGE('',*,*,#297,.T.);
#297 = EDGE_CURVE('',#147,#124,#298,.T.);
#298 = LINE('',#299,#300);
#299 = CARTESIAN_POINT('',(0.32,-0.32,-2.5));
#300 = VECTOR('',#301,1.);
#301 = DIRECTION('',(0.,1.,0.));
#302 = ORIENTED_EDGE('',*,*,#123,.F.);
#303 = ORIENTED_EDGE('',*,*,#304,.F.);
#304 = EDGE_CURVE('',#155,#116,#305,.T.);
#305 = LINE('',#306,#307);
#306 = CARTESIAN_POINT('',(0.32,-0.32,8.14));
#307 = VECTOR('',#308,1.);
#308 = DIRECTION('',(0.,1.,0.));
#309 = PLANE('',#310);
#310 = AXIS2_PLACEMENT_3D('',#311,#312,#313);
#311 = CARTESIAN_POINT('',(0.32,-0.32,8.64));
#312 = DIRECTION('',(1.,0.,0.));
#313 = DIRECTION('',(0.,1.,0.));
#314 = ADVANCED_FACE('',(#315),#333,.T.);
#315 = FACE_BOUND('',#316,.T.);
#316 = EDGE_LOOP('',(#317,#318,#319,#327));
#317 = ORIENTED_EDGE('',*,*,#185,.F.);
#318 = ORIENTED_EDGE('',*,*,#162,.T.);
#319 = ORIENTED_EDGE('',*,*,#320,.T.);
#320 = EDGE_CURVE('',#155,#321,#323,.T.);
#321 = VERTEX_POINT('',#322);
#322 = CARTESIAN_POINT('',(0.12,-0.12,8.64));
#323 = LINE('',#324,#325);
#324 = CARTESIAN_POINT('',(0.193333333333,-0.193333333333,8.456666666667
    ));
#325 = VECTOR('',#326,1.);
#326 = DIRECTION('',(-0.348155311911,0.348155311911,0.870388279778));
#327 = ORIENTED_EDGE('',*,*,#328,.F.);
#328 = EDGE_CURVE('',#186,#321,#329,.T.);
#329 = LINE('',#330,#331);
#330 = CARTESIAN_POINT('',(-0.32,-0.12,8.64));
#331 = VECTOR('',#332,1.);
#332 = DIRECTION('',(1.,0.,0.));
#333 = PLANE('',#334);
#334 = AXIS2_PLACEMENT_3D('',#335,#336,#337);
#335 = CARTESIAN_POINT('',(-0.32,-0.22,8.39));
#336 = DIRECTION('',(0.,-0.928476690885,0.371390676354));
#337 = DIRECTION('',(1.,0.,0.));
#338 = ADVANCED_FACE('',(#339),#350,.T.);
#339 = FACE_BOUND('',#340,.T.);
#340 = EDGE_LOOP('',(#341,#342,#348,#349));
#341 = ORIENTED_EDGE('',*,*,#328,.T.);
#342 = ORIENTED_EDGE('',*,*,#343,.T.);
#343 = EDGE_CURVE('',#321,#273,#344,.T.);
#344 = LINE('',#345,#346);
#345 = CARTESIAN_POINT('',(0.12,-0.32,8.64));
#346 = VECTOR('',#347,1.);
#347 = DIRECTION('',(0.,1.,0.));
#348 = ORIENTED_EDGE('',*,*,#282,.T.);
#349 = ORIENTED_EDGE('',*,*,#193,.T.);
#350 = PLANE('',#351);
#351 = AXIS2_PLACEMENT_3D('',#352,#353,#354);
#352 = CARTESIAN_POINT('',(-1.E-17,-1.E-17,8.64));
#353 = DIRECTION('',(0.,0.,1.));
#354 = DIRECTION('',(1.,0.,0.));
#355 = ADVANCED_FACE('',(#356),#362,.F.);
#356 = FACE_BOUND('',#357,.T.);
#357 = EDGE_LOOP('',(#358,#359,#360,#361));
#358 = ORIENTED_EDGE('',*,*,#241,.T.);
#359 = ORIENTED_EDGE('',*,*,#217,.T.);
#360 = ORIENTED_EDGE('',*,*,#297,.F.);
#361 = ORIENTED_EDGE('',*,*,#256,.F.);
#362 = PLANE('',#363);
#363 = AXIS2_PLACEMENT_3D('',#364,#365,#366);
#364 = CARTESIAN_POINT('',(0.22,-0.32,-2.75));
#365 = DIRECTION('',(-0.928476690885,0.,0.371390676354));
#366 = DIRECTION('',(-0.,-1.,-0.));
#367 = ADVANCED_FACE('',(#368),#374,.T.);
#368 = FACE_BOUND('',#369,.T.);
#369 = EDGE_LOOP('',(#370,#371,#372,#373));
#370 = ORIENTED_EDGE('',*,*,#320,.F.);
#371 = ORIENTED_EDGE('',*,*,#304,.T.);
#372 = ORIENTED_EDGE('',*,*,#272,.T.);
#373 = ORIENTED_EDGE('',*,*,#343,.F.);
#374 = PLANE('',#375);
#375 = AXIS2_PLACEMENT_3D('',#376,#377,#378);
#376 = CARTESIAN_POINT('',(0.22,-0.32,8.39));
#377 = DIRECTION('',(0.928476690885,0.,0.371390676354));
#378 = DIRECTION('',(0.,1.,0.));
#379 = MANIFOLD_SOLID_BREP('',#380);
#380 = CLOSED_SHELL('',(#381,#421,#452,#483,#514,#545,#569,#593,#610,
    #634,#656,#680,#697,#709));
#381 = ADVANCED_FACE('',(#382),#416,.T.);
#382 = FACE_BOUND('',#383,.T.);
#383 = EDGE_LOOP('',(#384,#394,#402,#410));
#384 = ORIENTED_EDGE('',*,*,#385,.T.);
#385 = EDGE_CURVE('',#386,#388,#390,.T.);
#386 = VERTEX_POINT('',#387);
#387 = CARTESIAN_POINT('',(2.22,0.32,-2.5));
#388 = VERTEX_POINT('',#389);
#389 = CARTESIAN_POINT('',(2.22,-0.32,-2.5));
#390 = LINE('',#391,#392);
#391 = CARTESIAN_POINT('',(2.22,0.12,-2.5));
#392 = VECTOR('',#393,1.);
#393 = DIRECTION('',(0.,-1.,0.));
#394 = ORIENTED_EDGE('',*,*,#395,.F.);
#395 = EDGE_CURVE('',#396,#388,#398,.T.);
#396 = VERTEX_POINT('',#397);
#397 = CARTESIAN_POINT('',(2.22,-0.32,8.14));
#398 = LINE('',#399,#400);
#399 = CARTESIAN_POINT('',(2.22,-0.32,8.64));
#400 = VECTOR('',#401,1.);
#401 = DIRECTION('',(-0.,-0.,-1.));
#402 = ORIENTED_EDGE('',*,*,#403,.F.);
#403 = EDGE_CURVE('',#404,#396,#406,.T.);
#404 = VERTEX_POINT('',#405);
#405 = CARTESIAN_POINT('',(2.22,0.32,8.14));
#406 = LINE('',#407,#408);
#407 = CARTESIAN_POINT('',(2.22,0.32,8.14));
#408 = VECTOR('',#409,1.);
#409 = DIRECTION('',(0.,-1.,0.));
#410 = ORIENTED_EDGE('',*,*,#411,.T.);
#411 = EDGE_CURVE('',#404,#386,#412,.T.);
#412 = LINE('',#413,#414);
#413 = CARTESIAN_POINT('',(2.22,0.32,8.64));
#414 = VECTOR('',#415,1.);
#415 = DIRECTION('',(-0.,-0.,-1.));
#416 = PLANE('',#417);
#417 = AXIS2_PLACEMENT_3D('',#418,#419,#420);
#418 = CARTESIAN_POINT('',(2.22,0.32,8.64));
#419 = DIRECTION('',(-1.,0.,0.));
#420 = DIRECTION('',(0.,-1.,0.));
#421 = ADVANCED_FACE('',(#422),#447,.F.);
#422 = FACE_BOUND('',#423,.F.);
#423 = EDGE_LOOP('',(#424,#432,#433,#441));
#424 = ORIENTED_EDGE('',*,*,#425,.F.);
#425 = EDGE_CURVE('',#386,#426,#428,.T.);
#426 = VERTEX_POINT('',#427);
#427 = CARTESIAN_POINT('',(2.42,0.12,-3.));
#428 = LINE('',#429,#430);
#429 = CARTESIAN_POINT('',(2.346666666667,0.193333333333,-2.816666666667
    ));
#430 = VECTOR('',#431,1.);
#431 = DIRECTION('',(0.348155311911,-0.348155311911,-0.870388279778));
#432 = ORIENTED_EDGE('',*,*,#385,.T.);
#433 = ORIENTED_EDGE('',*,*,#434,.T.);
#434 = EDGE_CURVE('',#388,#435,#437,.T.);
#435 = VERTEX_POINT('',#436);
#436 = CARTESIAN_POINT('',(2.42,-0.12,-3.));
#437 = LINE('',#438,#439);
#438 = CARTESIAN_POINT('',(2.334545454545,-0.205454545455,
    -2.786363636364));
#439 = VECTOR('',#440,1.);
#440 = DIRECTION('',(0.348155311911,0.348155311911,-0.870388279778));
#441 = ORIENTED_EDGE('',*,*,#442,.F.);
#442 = EDGE_CURVE('',#426,#435,#443,.T.);
#443 = LINE('',#444,#445);
#444 = CARTESIAN_POINT('',(2.42,0.12,-3.));
#445 = VECTOR('',#446,1.);
#446 = DIRECTION('',(0.,-1.,0.));
#447 = PLANE('',#448);
#448 = AXIS2_PLACEMENT_3D('',#449,#450,#451);
#449 = CARTESIAN_POINT('',(2.32,0.12,-2.75));
#450 = DIRECTION('',(0.928476690885,0.,0.371390676354));
#451 = DIRECTION('',(0.,-1.,0.));
#452 = ADVANCED_FACE('',(#453),#478,.T.);
#453 = FACE_BOUND('',#454,.T.);
#454 = EDGE_LOOP('',(#455,#456,#464,#472));
#455 = ORIENTED_EDGE('',*,*,#411,.F.);
#456 = ORIENTED_EDGE('',*,*,#457,.F.);
#457 = EDGE_CURVE('',#458,#404,#460,.T.);
#458 = VERTEX_POINT('',#459);
#459 = CARTESIAN_POINT('',(2.86,0.32,8.14));
#460 = LINE('',#461,#462);
#461 = CARTESIAN_POINT('',(2.86,0.32,8.14));
#462 = VECTOR('',#463,1.);
#463 = DIRECTION('',(-1.,0.,0.));
#464 = ORIENTED_EDGE('',*,*,#465,.T.);
#465 = EDGE_CURVE('',#458,#466,#468,.T.);
#466 = VERTEX_POINT('',#467);
#467 = CARTESIAN_POINT('',(2.86,0.32,-2.5));
#468 = LINE('',#469,#470);
#469 = CARTESIAN_POINT('',(2.86,0.32,8.64));
#470 = VECTOR('',#471,1.);
#471 = DIRECTION('',(-0.,-0.,-1.));
#472 = ORIENTED_EDGE('',*,*,#473,.T.);
#473 = EDGE_CURVE('',#466,#386,#474,.T.);
#474 = LINE('',#475,#476);
#475 = CARTESIAN_POINT('',(2.66,0.32,-2.5));
#476 = VECTOR('',#477,1.);
#477 = DIRECTION('',(-1.,0.,0.));
#478 = PLANE('',#479);
#479 = AXIS2_PLACEMENT_3D('',#480,#481,#482);
#480 = CARTESIAN_POINT('',(2.86,0.32,8.64));
#481 = DIRECTION('',(0.,1.,0.));
#482 = DIRECTION('',(-1.,0.,0.));
#483 = ADVANCED_FACE('',(#484),#509,.T.);
#484 = FACE_BOUND('',#485,.T.);
#485 = EDGE_LOOP('',(#486,#487,#495,#503));
#486 = ORIENTED_EDGE('',*,*,#395,.T.);
#487 = ORIENTED_EDGE('',*,*,#488,.T.);
#488 = EDGE_CURVE('',#388,#489,#491,.T.);
#489 = VERTEX_POINT('',#490);
#490 = CARTESIAN_POINT('',(2.86,-0.32,-2.5));
#491 = LINE('',#492,#493);
#492 = CARTESIAN_POINT('',(2.22,-0.32,-2.5));
#493 = VECTOR('',#494,1.);
#494 = DIRECTION('',(1.,0.,0.));
#495 = ORIENTED_EDGE('',*,*,#496,.F.);
#496 = EDGE_CURVE('',#497,#489,#499,.T.);
#497 = VERTEX_POINT('',#498);
#498 = CARTESIAN_POINT('',(2.86,-0.32,8.14));
#499 = LINE('',#500,#501);
#500 = CARTESIAN_POINT('',(2.86,-0.32,8.64));
#501 = VECTOR('',#502,1.);
#502 = DIRECTION('',(-0.,-0.,-1.));
#503 = ORIENTED_EDGE('',*,*,#504,.F.);
#504 = EDGE_CURVE('',#396,#497,#505,.T.);
#505 = LINE('',#506,#507);
#506 = CARTESIAN_POINT('',(2.22,-0.32,8.14));
#507 = VECTOR('',#508,1.);
#508 = DIRECTION('',(1.,0.,0.));
#509 = PLANE('',#510);
#510 = AXIS2_PLACEMENT_3D('',#511,#512,#513);
#511 = CARTESIAN_POINT('',(2.22,-0.32,8.64));
#512 = DIRECTION('',(0.,-1.,0.));
#513 = DIRECTION('',(1.,0.,0.));
#514 = ADVANCED_FACE('',(#515),#540,.T.);
#515 = FACE_BOUND('',#516,.T.);
#516 = EDGE_LOOP('',(#517,#525,#526,#534));
#517 = ORIENTED_EDGE('',*,*,#518,.F.);
#518 = EDGE_CURVE('',#404,#519,#521,.T.);
#519 = VERTEX_POINT('',#520);
#520 = CARTESIAN_POINT('',(2.42,0.12,8.64));
#521 = LINE('',#522,#523);
#522 = CARTESIAN_POINT('',(2.346666666667,0.193333333333,8.456666666667)
  );
#523 = VECTOR('',#524,1.);
#524 = DIRECTION('',(0.348155311911,-0.348155311911,0.870388279778));
#525 = ORIENTED_EDGE('',*,*,#403,.T.);
#526 = ORIENTED_EDGE('',*,*,#527,.T.);
#527 = EDGE_CURVE('',#396,#528,#530,.T.);
#528 = VERTEX_POINT('',#529);
#529 = CARTESIAN_POINT('',(2.42,-0.12,8.64));
#530 = LINE('',#531,#532);
#531 = CARTESIAN_POINT('',(2.346666666667,-0.193333333333,8.456666666667
    ));
#532 = VECTOR('',#533,1.);
#533 = DIRECTION('',(0.348155311911,0.348155311911,0.870388279778));
#534 = ORIENTED_EDGE('',*,*,#535,.F.);
#535 = EDGE_CURVE('',#519,#528,#536,.T.);
#536 = LINE('',#537,#538);
#537 = CARTESIAN_POINT('',(2.42,0.32,8.64));
#538 = VECTOR('',#539,1.);
#539 = DIRECTION('',(0.,-1.,0.));
#540 = PLANE('',#541);
#541 = AXIS2_PLACEMENT_3D('',#542,#543,#544);
#542 = CARTESIAN_POINT('',(2.32,0.32,8.39));
#543 = DIRECTION('',(-0.928476690885,0.,0.371390676354));
#544 = DIRECTION('',(0.,-1.,0.));
#545 = ADVANCED_FACE('',(#546),#564,.F.);
#546 = FACE_BOUND('',#547,.T.);
#547 = EDGE_LOOP('',(#548,#556,#557,#558));
#548 = ORIENTED_EDGE('',*,*,#549,.T.);
#549 = EDGE_CURVE('',#550,#426,#552,.T.);
#550 = VERTEX_POINT('',#551);
#551 = CARTESIAN_POINT('',(2.66,0.12,-3.));
#552 = LINE('',#553,#554);
#553 = CARTESIAN_POINT('',(2.66,0.12,-3.));
#554 = VECTOR('',#555,1.);
#555 = DIRECTION('',(-1.,0.,0.));
#556 = ORIENTED_EDGE('',*,*,#425,.F.);
#557 = ORIENTED_EDGE('',*,*,#473,.F.);
#558 = ORIENTED_EDGE('',*,*,#559,.F.);
#559 = EDGE_CURVE('',#550,#466,#560,.T.);
#560 = LINE('',#561,#562);
#561 = CARTESIAN_POINT('',(2.721212121212,0.181212121212,-2.84696969697)
  );
#562 = VECTOR('',#563,1.);
#563 = DIRECTION('',(0.348155311911,0.348155311911,0.870388279778));
#564 = PLANE('',#565);
#565 = AXIS2_PLACEMENT_3D('',#566,#567,#568);
#566 = CARTESIAN_POINT('',(2.66,0.22,-2.75));
#567 = DIRECTION('',(0.,-0.928476690885,0.371390676354));
#568 = DIRECTION('',(1.,0.,0.));
#569 = ADVANCED_FACE('',(#570),#588,.F.);
#570 = FACE_BOUND('',#571,.F.);
#571 = EDGE_LOOP('',(#572,#573,#574,#582));
#572 = ORIENTED_EDGE('',*,*,#549,.T.);
#573 = ORIENTED_EDGE('',*,*,#442,.T.);
#574 = ORIENTED_EDGE('',*,*,#575,.T.);
#575 = EDGE_CURVE('',#435,#576,#578,.T.);
#576 = VERTEX_POINT('',#577);
#577 = CARTESIAN_POINT('',(2.66,-0.12,-3.));
#578 = LINE('',#579,#580);
#579 = CARTESIAN_POINT('',(2.22,-0.12,-3.));
#580 = VECTOR('',#581,1.);
#581 = DIRECTION('',(1.,0.,0.));
#582 = ORIENTED_EDGE('',*,*,#583,.T.);
#583 = EDGE_CURVE('',#576,#550,#584,.T.);
#584 = LINE('',#585,#586);
#585 = CARTESIAN_POINT('',(2.66,-0.32,-3.));
#586 = VECTOR('',#587,1.);
#587 = DIRECTION('',(0.,1.,0.));
#588 = PLANE('',#589);
#589 = AXIS2_PLACEMENT_3D('',#590,#591,#592);
#590 = CARTESIAN_POINT('',(2.54,-1.E-17,-3.));
#591 = DIRECTION('',(0.,0.,1.));
#592 = DIRECTION('',(1.,0.,0.));
#593 = ADVANCED_FACE('',(#594),#605,.F.);
#594 = FACE_BOUND('',#595,.T.);
#595 = EDGE_LOOP('',(#596,#597,#603,#604));
#596 = ORIENTED_EDGE('',*,*,#575,.T.);
#597 = ORIENTED_EDGE('',*,*,#598,.T.);
#598 = EDGE_CURVE('',#576,#489,#599,.T.);
#599 = LINE('',#600,#601);
#600 = CARTESIAN_POINT('',(2.733333333333,-0.193333333333,
    -2.816666666667));
#601 = VECTOR('',#602,1.);
#602 = DIRECTION('',(0.348155311911,-0.348155311911,0.870388279778));
#603 = ORIENTED_EDGE('',*,*,#488,.F.);
#604 = ORIENTED_EDGE('',*,*,#434,.T.);
#605 = PLANE('',#606);
#606 = AXIS2_PLACEMENT_3D('',#607,#608,#609);
#607 = CARTESIAN_POINT('',(2.22,-0.22,-2.75));
#608 = DIRECTION('',(0.,0.928476690885,0.371390676354));
#609 = DIRECTION('',(-1.,-0.,-0.));
#610 = ADVANCED_FACE('',(#611),#629,.T.);
#611 = FACE_BOUND('',#612,.T.);
#612 = EDGE_LOOP('',(#613,#621,#622,#623));
#613 = ORIENTED_EDGE('',*,*,#614,.F.);
#614 = EDGE_CURVE('',#458,#615,#617,.T.);
#615 = VERTEX_POINT('',#616);
#616 = CARTESIAN_POINT('',(2.66,0.12,8.64));
#617 = LINE('',#618,#619);
#618 = CARTESIAN_POINT('',(2.733333333333,0.193333333333,8.456666666667)
  );
#619 = VECTOR('',#620,1.);
#620 = DIRECTION('',(-0.348155311911,-0.348155311911,0.870388279778));
#621 = ORIENTED_EDGE('',*,*,#457,.T.);
#622 = ORIENTED_EDGE('',*,*,#518,.T.);
#623 = ORIENTED_EDGE('',*,*,#624,.F.);
#624 = EDGE_CURVE('',#615,#519,#625,.T.);
#625 = LINE('',#626,#627);
#626 = CARTESIAN_POINT('',(2.86,0.12,8.64));
#627 = VECTOR('',#628,1.);
#628 = DIRECTION('',(-1.,0.,0.));
#629 = PLANE('',#630);
#630 = AXIS2_PLACEMENT_3D('',#631,#632,#633);
#631 = CARTESIAN_POINT('',(2.86,0.22,8.39));
#632 = DIRECTION('',(0.,0.928476690885,0.371390676354));
#633 = DIRECTION('',(-1.,0.,0.));
#634 = ADVANCED_FACE('',(#635),#651,.T.);
#635 = FACE_BOUND('',#636,.T.);
#636 = EDGE_LOOP('',(#637,#638,#644,#645));
#637 = ORIENTED_EDGE('',*,*,#496,.T.);
#638 = ORIENTED_EDGE('',*,*,#639,.T.);
#639 = EDGE_CURVE('',#489,#466,#640,.T.);
#640 = LINE('',#641,#642);
#641 = CARTESIAN_POINT('',(2.86,-0.32,-2.5));
#642 = VECTOR('',#643,1.);
#643 = DIRECTION('',(0.,1.,0.));
#644 = ORIENTED_EDGE('',*,*,#465,.F.);
#645 = ORIENTED_EDGE('',*,*,#646,.F.);
#646 = EDGE_CURVE('',#497,#458,#647,.T.);
#647 = LINE('',#648,#649);
#648 = CARTESIAN_POINT('',(2.86,-0.32,8.14));
#649 = VECTOR('',#650,1.);
#650 = DIRECTION('',(0.,1.,0.));
#651 = PLANE('',#652);
#652 = AXIS2_PLACEMENT_3D('',#653,#654,#655);
#653 = CARTESIAN_POINT('',(2.86,-0.32,8.64));
#654 = DIRECTION('',(1.,0.,0.));
#655 = DIRECTION('',(0.,1.,0.));
#656 = ADVANCED_FACE('',(#657),#675,.T.);
#657 = FACE_BOUND('',#658,.T.);
#658 = EDGE_LOOP('',(#659,#660,#661,#669));
#659 = ORIENTED_EDGE('',*,*,#527,.F.);
#660 = ORIENTED_EDGE('',*,*,#504,.T.);
#661 = ORIENTED_EDGE('',*,*,#662,.T.);
#662 = EDGE_CURVE('',#497,#663,#665,.T.);
#663 = VERTEX_POINT('',#664);
#664 = CARTESIAN_POINT('',(2.66,-0.12,8.64));
#665 = LINE('',#666,#667);
#666 = CARTESIAN_POINT('',(2.733333333333,-0.193333333333,8.456666666667
    ));
#667 = VECTOR('',#668,1.);
#668 = DIRECTION('',(-0.348155311911,0.348155311911,0.870388279778));
#669 = ORIENTED_EDGE('',*,*,#670,.F.);
#670 = EDGE_CURVE('',#528,#663,#671,.T.);
#671 = LINE('',#672,#673);
#672 = CARTESIAN_POINT('',(2.22,-0.12,8.64));
#673 = VECTOR('',#674,1.);
#674 = DIRECTION('',(1.,0.,0.));
#675 = PLANE('',#676);
#676 = AXIS2_PLACEMENT_3D('',#677,#678,#679);
#677 = CARTESIAN_POINT('',(2.22,-0.22,8.39));
#678 = DIRECTION('',(0.,-0.928476690885,0.371390676354));
#679 = DIRECTION('',(1.,0.,0.));
#680 = ADVANCED_FACE('',(#681),#692,.T.);
#681 = FACE_BOUND('',#682,.T.);
#682 = EDGE_LOOP('',(#683,#684,#690,#691));
#683 = ORIENTED_EDGE('',*,*,#670,.T.);
#684 = ORIENTED_EDGE('',*,*,#685,.T.);
#685 = EDGE_CURVE('',#663,#615,#686,.T.);
#686 = LINE('',#687,#688);
#687 = CARTESIAN_POINT('',(2.66,-0.32,8.64));
#688 = VECTOR('',#689,1.);
#689 = DIRECTION('',(0.,1.,0.));
#690 = ORIENTED_EDGE('',*,*,#624,.T.);
#691 = ORIENTED_EDGE('',*,*,#535,.T.);
#692 = PLANE('',#693);
#693 = AXIS2_PLACEMENT_3D('',#694,#695,#696);
#694 = CARTESIAN_POINT('',(2.54,-1.E-17,8.64));
#695 = DIRECTION('',(0.,0.,1.));
#696 = DIRECTION('',(1.,0.,0.));
#697 = ADVANCED_FACE('',(#698),#704,.F.);
#698 = FACE_BOUND('',#699,.T.);
#699 = EDGE_LOOP('',(#700,#701,#702,#703));
#700 = ORIENTED_EDGE('',*,*,#583,.T.);
#701 = ORIENTED_EDGE('',*,*,#559,.T.);
#702 = ORIENTED_EDGE('',*,*,#639,.F.);
#703 = ORIENTED_EDGE('',*,*,#598,.F.);
#704 = PLANE('',#705);
#705 = AXIS2_PLACEMENT_3D('',#706,#707,#708);
#706 = CARTESIAN_POINT('',(2.76,-0.32,-2.75));
#707 = DIRECTION('',(-0.928476690885,0.,0.371390676354));
#708 = DIRECTION('',(-0.,-1.,-0.));
#709 = ADVANCED_FACE('',(#710),#716,.T.);
#710 = FACE_BOUND('',#711,.T.);
#711 = EDGE_LOOP('',(#712,#713,#714,#715));
#712 = ORIENTED_EDGE('',*,*,#662,.F.);
#713 = ORIENTED_EDGE('',*,*,#646,.T.);
#714 = ORIENTED_EDGE('',*,*,#614,.T.);
#715 = ORIENTED_EDGE('',*,*,#685,.F.);
#716 = PLANE('',#717);
#717 = AXIS2_PLACEMENT_3D('',#718,#719,#720);
#718 = CARTESIAN_POINT('',(2.76,-0.32,8.39));
#719 = DIRECTION('',(0.928476690885,0.,0.371390676354));
#720 = DIRECTION('',(0.,1.,0.));
#721 = ( GEOMETRIC_REPRESENTATION_CONTEXT(3) 
GLOBAL_UNCERTAINTY_ASSIGNED_CONTEXT((#725)) GLOBAL_UNIT_ASSIGNED_CONTEXT
((#722,#723,#724)) REPRESENTATION_CONTEXT('Context #1',
  '3D Context with UNIT and UNCERTAINTY') );
#722 = ( LENGTH_UNIT() NAMED_UNIT(*) SI_UNIT(.MILLI.,.METRE.) );
#723 = ( NAMED_UNIT(*) PLANE_ANGLE_UNIT() SI_UNIT($,.RADIAN.) );
#724 = ( NAMED_UNIT(*) SI_UNIT($,.STERADIAN.) SOLID_ANGLE_UNIT() );
#725 = UNCERTAINTY_MEASURE_WITH_UNIT(LENGTH_MEASURE(1.E-07),#722,
  'distance_accuracy_value','confusion accuracy');
#726 = CONTEXT_DEPENDENT_SHAPE_REPRESENTATION(#727,#729);
#727 = ( REPRESENTATION_RELATIONSHIP('','',#36,#10) 
REPRESENTATION_RELATIONSHIP_WITH_TRANSFORMATION(#728) 
SHAPE_REPRESENTATION_RELATIONSHIP() );
#728 = ITEM_DEFINED_TRANSFORMATION('','',#11,#15);
#729 = PRODUCT_DEFINITION_SHAPE('Placement','Placement of an item',#730
  );
#730 = NEXT_ASSEMBLY_USAGE_OCCURRENCE('1','Pin','',#5,#31,$);
#731 = PRODUCT_RELATED_PRODUCT_CATEGORY('part',$,(#33));
#732 = SHAPE_DEFINITION_REPRESENTATION(#733,#739);
#733 = PRODUCT_DEFINITION_SHAPE('','',#734);
#734 = PRODUCT_DEFINITION('design','',#735,#738);
#735 = PRODUCT_DEFINITION_FORMATION('','',#736);
#736 = PRODUCT('Body','Body','',(#737));
#737 = PRODUCT_CONTEXT('',#2,'mechanical');
#738 = PRODUCT_DEFINITION_CONTEXT('part definition',#2,'design');
#739 = ADVANCED_BREP_SHAPE_REPRESENTATION('',(#11,#740),#2242);
#740 = MANIFOLD_SOLID_BREP('',#741);
#741 = CLOSED_SHELL('',(#742,#848,#895,#919,#959,#999,#1039,#1079,#1103,
    #1136,#1167,#1191,#1215,#1232,#1306,#1323,#1335,#1359,#1383,#1400,
    #1417,#1464,#1488,#1512,#1529,#1553,#1593,#1605,#1617,#1634,#1749,
    #1794,#1870,#1908,#1932,#1956,#1980,#1997,#2021,#2054,#2071,#2095,
    #2121,#2143,#2160,#2177,#2189,#2201,#2218,#2230));
#742 = ADVANCED_FACE('',(#743,#809),#843,.T.);
#743 = FACE_BOUND('',#744,.T.);
#744 = EDGE_LOOP('',(#745,#755,#763,#771,#779,#787,#795,#803));
#745 = ORIENTED_EDGE('',*,*,#746,.F.);
#746 = EDGE_CURVE('',#747,#749,#751,.T.);
#747 = VERTEX_POINT('',#748);
#748 = CARTESIAN_POINT('',(-0.67,-1.27,2.54));
#749 = VERTEX_POINT('',#750);
#750 = CARTESIAN_POINT('',(-0.92,-1.02,2.54));
#751 = LINE('',#752,#753);
#752 = CARTESIAN_POINT('',(-0.97,-0.97,2.54));
#753 = VECTOR('',#754,1.);
#754 = DIRECTION('',(-0.707106781187,0.707106781187,0.));
#755 = ORIENTED_EDGE('',*,*,#756,.T.);
#756 = EDGE_CURVE('',#747,#757,#759,.T.);
#757 = VERTEX_POINT('',#758);
#758 = CARTESIAN_POINT('',(0.67,-1.27,2.54));
#759 = LINE('',#760,#761);
#760 = CARTESIAN_POINT('',(-1.27,-1.27,2.54));
#761 = VECTOR('',#762,1.);
#762 = DIRECTION('',(1.,0.,0.));
#763 = ORIENTED_EDGE('',*,*,#764,.T.);
#764 = EDGE_CURVE('',#757,#765,#767,.T.);
#765 = VERTEX_POINT('',#766);
#766 = CARTESIAN_POINT('',(0.92,-1.02,2.54));
#767 = LINE('',#768,#769);
#768 = CARTESIAN_POINT('',(0.97,-0.97,2.54));
#769 = VECTOR('',#770,1.);
#770 = DIRECTION('',(0.707106781187,0.707106781187,0.));
#771 = ORIENTED_EDGE('',*,*,#772,.T.);
#772 = EDGE_CURVE('',#765,#773,#775,.T.);
#773 = VERTEX_POINT('',#774);
#774 = CARTESIAN_POINT('',(0.92,1.02,2.54));
#775 = LINE('',#776,#777);
#776 = CARTESIAN_POINT('',(0.92,-0.67,2.54));
#777 = VECTOR('',#778,1.);
#778 = DIRECTION('',(0.,1.,0.));
#779 = ORIENTED_EDGE('',*,*,#780,.T.);
#780 = EDGE_CURVE('',#773,#781,#783,.T.);
#781 = VERTEX_POINT('',#782);
#782 = CARTESIAN_POINT('',(0.67,1.27,2.54));
#783 = LINE('',#784,#785);
#784 = CARTESIAN_POINT('',(0.97,0.97,2.54));
#785 = VECTOR('',#786,1.);
#786 = DIRECTION('',(-0.707106781187,0.707106781187,0.));
#787 = ORIENTED_EDGE('',*,*,#788,.T.);
#788 = EDGE_CURVE('',#781,#789,#791,.T.);
#789 = VERTEX_POINT('',#790);
#790 = CARTESIAN_POINT('',(-0.67,1.27,2.54));
#791 = LINE('',#792,#793);
#792 = CARTESIAN_POINT('',(1.27,1.27,2.54));
#793 = VECTOR('',#794,1.);
#794 = DIRECTION('',(-1.,0.,0.));
#795 = ORIENTED_EDGE('',*,*,#796,.F.);
#796 = EDGE_CURVE('',#797,#789,#799,.T.);
#797 = VERTEX_POINT('',#798);
#798 = CARTESIAN_POINT('',(-0.92,1.02,2.54));
#799 = LINE('',#800,#801);
#800 = CARTESIAN_POINT('',(-0.97,0.97,2.54));
#801 = VECTOR('',#802,1.);
#802 = DIRECTION('',(0.707106781187,0.707106781187,0.));
#803 = ORIENTED_EDGE('',*,*,#804,.T.);
#804 = EDGE_CURVE('',#797,#749,#805,.T.);
#805 = LINE('',#806,#807);
#806 = CARTESIAN_POINT('',(-0.92,0.67,2.54));
#807 = VECTOR('',#808,1.);
#808 = DIRECTION('',(0.,-1.,0.));
#809 = FACE_BOUND('',#810,.T.);
#810 = EDGE_LOOP('',(#811,#821,#829,#837));
#811 = ORIENTED_EDGE('',*,*,#812,.F.);
#812 = EDGE_CURVE('',#813,#815,#817,.T.);
#813 = VERTEX_POINT('',#814);
#814 = CARTESIAN_POINT('',(-0.32,0.32,2.54));
#815 = VERTEX_POINT('',#816);
#816 = CARTESIAN_POINT('',(-0.32,-0.32,2.54));
#817 = LINE('',#818,#819);
#818 = CARTESIAN_POINT('',(-0.32,-0.16,2.54));
#819 = VECTOR('',#820,1.);
#820 = DIRECTION('',(0.,-1.,0.));
#821 = ORIENTED_EDGE('',*,*,#822,.F.);
#822 = EDGE_CURVE('',#823,#813,#825,.T.);
#823 = VERTEX_POINT('',#824);
#824 = CARTESIAN_POINT('',(0.32,0.32,2.54));
#825 = LINE('',#826,#827);
#826 = CARTESIAN_POINT('',(-0.16,0.32,2.54));
#827 = VECTOR('',#828,1.);
#828 = DIRECTION('',(-1.,0.,0.));
#829 = ORIENTED_EDGE('',*,*,#830,.F.);
#830 = EDGE_CURVE('',#831,#823,#833,.T.);
#831 = VERTEX_POINT('',#832);
#832 = CARTESIAN_POINT('',(0.32,-0.32,2.54));
#833 = LINE('',#834,#835);
#834 = CARTESIAN_POINT('',(0.32,0.16,2.54));
#835 = VECTOR('',#836,1.);
#836 = DIRECTION('',(0.,1.,0.));
#837 = ORIENTED_EDGE('',*,*,#838,.F.);
#838 = EDGE_CURVE('',#815,#831,#839,.T.);
#839 = LINE('',#840,#841);
#840 = CARTESIAN_POINT('',(0.16,-0.32,2.54));
#841 = VECTOR('',#842,1.);
#842 = DIRECTION('',(1.,0.,0.));
#843 = PLANE('',#844);
#844 = AXIS2_PLACEMENT_3D('',#845,#846,#847);
#845 = CARTESIAN_POINT('',(4.E-17,-4.E-17,2.54));
#846 = DIRECTION('',(0.,0.,1.));
#847 = DIRECTION('',(1.,0.,0.));
#848 = ADVANCED_FACE('',(#849),#890,.T.);
#849 = FACE_BOUND('',#850,.T.);
#850 = EDGE_LOOP('',(#851,#861,#867,#868,#876,#884));
#851 = ORIENTED_EDGE('',*,*,#852,.F.);
#852 = EDGE_CURVE('',#853,#855,#857,.T.);
#853 = VERTEX_POINT('',#854);
#854 = CARTESIAN_POINT('',(-0.67,-1.27,0.6));
#855 = VERTEX_POINT('',#856);
#856 = CARTESIAN_POINT('',(-0.92,-1.02,0.6));
#857 = LINE('',#858,#859);
#858 = CARTESIAN_POINT('',(-0.97,-0.97,0.6));
#859 = VECTOR('',#860,1.);
#860 = DIRECTION('',(-0.707106781187,0.707106781187,1.46537E-12));
#861 = ORIENTED_EDGE('',*,*,#862,.T.);
#862 = EDGE_CURVE('',#853,#747,#863,.T.);
#863 = LINE('',#864,#865);
#864 = CARTESIAN_POINT('',(-0.67,-1.27,0.6));
#865 = VECTOR('',#866,1.);
#866 = DIRECTION('',(0.,0.,1.));
#867 = ORIENTED_EDGE('',*,*,#746,.T.);
#868 = ORIENTED_EDGE('',*,*,#869,.T.);
#869 = EDGE_CURVE('',#749,#870,#872,.T.);
#870 = VERTEX_POINT('',#871);
#871 = CARTESIAN_POINT('',(-1.27,-0.67,2.19));
#872 = LINE('',#873,#874);
#873 = CARTESIAN_POINT('',(-1.6,-0.34,1.86));
#874 = VECTOR('',#875,1.);
#875 = DIRECTION('',(-0.57735026919,0.57735026919,-0.57735026919));
#876 = ORIENTED_EDGE('',*,*,#877,.F.);
#877 = EDGE_CURVE('',#878,#870,#880,.T.);
#878 = VERTEX_POINT('',#879);
#879 = CARTESIAN_POINT('',(-1.27,-0.67,0.950000000001));
#880 = LINE('',#881,#882);
#881 = CARTESIAN_POINT('',(-1.27,-0.67,0.6));
#882 = VECTOR('',#883,1.);
#883 = DIRECTION('',(0.,0.,1.));
#884 = ORIENTED_EDGE('',*,*,#885,.T.);
#885 = EDGE_CURVE('',#878,#855,#886,.T.);
#886 = LINE('',#887,#888);
#887 = CARTESIAN_POINT('',(-1.053333333333,-0.886666666667,
    0.733333333333));
#888 = VECTOR('',#889,1.);
#889 = DIRECTION('',(0.577350269189,-0.577350269189,-0.57735026919));
#890 = PLANE('',#891);
#891 = AXIS2_PLACEMENT_3D('',#892,#893,#894);
#892 = CARTESIAN_POINT('',(-0.97,-0.97,0.6));
#893 = DIRECTION('',(-0.707106781187,-0.707106781187,0.));
#894 = DIRECTION('',(0.,0.,1.));
#895 = ADVANCED_FACE('',(#896),#914,.F.);
#896 = FACE_BOUND('',#897,.F.);
#897 = EDGE_LOOP('',(#898,#906,#907,#908));
#898 = ORIENTED_EDGE('',*,*,#899,.F.);
#899 = EDGE_CURVE('',#797,#900,#902,.T.);
#900 = VERTEX_POINT('',#901);
#901 = CARTESIAN_POINT('',(-1.27,0.67,2.19));
#902 = LINE('',#903,#904);
#903 = CARTESIAN_POINT('',(-1.376666666667,0.563333333333,2.083333333333
    ));
#904 = VECTOR('',#905,1.);
#905 = DIRECTION('',(-0.57735026919,-0.57735026919,-0.57735026919));
#906 = ORIENTED_EDGE('',*,*,#804,.T.);
#907 = ORIENTED_EDGE('',*,*,#869,.T.);
#908 = ORIENTED_EDGE('',*,*,#909,.F.);
#909 = EDGE_CURVE('',#900,#870,#910,.T.);
#910 = LINE('',#911,#912);
#911 = CARTESIAN_POINT('',(-1.27,0.67,2.19));
#912 = VECTOR('',#913,1.);
#913 = DIRECTION('',(0.,-1.,0.));
#914 = PLANE('',#915);
#915 = AXIS2_PLACEMENT_3D('',#916,#917,#918);
#916 = CARTESIAN_POINT('',(-1.095,0.67,2.365));
#917 = DIRECTION('',(0.707106781187,0.,-0.707106781187));
#918 = DIRECTION('',(0.,-1.,0.));
#919 = ADVANCED_FACE('',(#920),#954,.F.);
#920 = FACE_BOUND('',#921,.F.);
#921 = EDGE_LOOP('',(#922,#923,#931,#939,#947,#953));
#922 = ORIENTED_EDGE('',*,*,#756,.T.);
#923 = ORIENTED_EDGE('',*,*,#924,.F.);
#924 = EDGE_CURVE('',#925,#757,#927,.T.);
#925 = VERTEX_POINT('',#926);
#926 = CARTESIAN_POINT('',(0.67,-1.27,0.599999999995));
#927 = LINE('',#928,#929);
#928 = CARTESIAN_POINT('',(0.67,-1.27,0.599999999995));
#929 = VECTOR('',#930,1.);
#930 = DIRECTION('',(0.,0.,1.));
#931 = ORIENTED_EDGE('',*,*,#932,.T.);
#932 = EDGE_CURVE('',#925,#933,#935,.T.);
#933 = VERTEX_POINT('',#934);
#934 = CARTESIAN_POINT('',(0.670000000001,-1.27,0.));
#935 = LINE('',#936,#937);
#936 = CARTESIAN_POINT('',(0.670000000001,-1.27,0.599999999995));
#937 = VECTOR('',#938,1.);
#938 = DIRECTION('',(0.,0.,-1.));
#939 = ORIENTED_EDGE('',*,*,#940,.F.);
#940 = EDGE_CURVE('',#941,#933,#943,.T.);
#941 = VERTEX_POINT('',#942);
#942 = CARTESIAN_POINT('',(-0.67,-1.27,0.));
#943 = LINE('',#944,#945);
#944 = CARTESIAN_POINT('',(-1.27,-1.27,0.));
#945 = VECTOR('',#946,1.);
#946 = DIRECTION('',(1.,0.,0.));
#947 = ORIENTED_EDGE('',*,*,#948,.T.);
#948 = EDGE_CURVE('',#941,#853,#949,.T.);
#949 = LINE('',#950,#951);
#950 = CARTESIAN_POINT('',(-0.67,-1.27,0.));
#951 = VECTOR('',#952,1.);
#952 = DIRECTION('',(0.,0.,1.));
#953 = ORIENTED_EDGE('',*,*,#862,.T.);
#954 = PLANE('',#955);
#955 = AXIS2_PLACEMENT_3D('',#956,#957,#958);
#956 = CARTESIAN_POINT('',(-1.27,-1.27,0.));
#957 = DIRECTION('',(0.,1.,0.));
#958 = DIRECTION('',(1.,0.,0.));
#959 = ADVANCED_FACE('',(#960),#994,.T.);
#960 = FACE_BOUND('',#961,.T.);
#961 = EDGE_LOOP('',(#962,#972,#980,#986,#987,#988));
#962 = ORIENTED_EDGE('',*,*,#963,.F.);
#963 = EDGE_CURVE('',#964,#966,#968,.T.);
#964 = VERTEX_POINT('',#965);
#965 = CARTESIAN_POINT('',(-0.92,1.02,0.6));
#966 = VERTEX_POINT('',#967);
#967 = CARTESIAN_POINT('',(-0.67,1.27,0.6));
#968 = LINE('',#969,#970);
#969 = CARTESIAN_POINT('',(-0.97,0.97,0.6));
#970 = VECTOR('',#971,1.);
#971 = DIRECTION('',(0.707106781187,0.707106781187,-1.46537E-12));
#972 = ORIENTED_EDGE('',*,*,#973,.F.);
#973 = EDGE_CURVE('',#974,#964,#976,.T.);
#974 = VERTEX_POINT('',#975);
#975 = CARTESIAN_POINT('',(-1.27,0.67,0.950000000001));
#976 = LINE('',#977,#978);
#977 = CARTESIAN_POINT('',(-1.276666666666,0.663333333334,0.956666666667
    ));
#978 = VECTOR('',#979,1.);
#979 = DIRECTION('',(0.577350269189,0.577350269189,-0.57735026919));
#980 = ORIENTED_EDGE('',*,*,#981,.T.);
#981 = EDGE_CURVE('',#974,#900,#982,.T.);
#982 = LINE('',#983,#984);
#983 = CARTESIAN_POINT('',(-1.27,0.67,0.6));
#984 = VECTOR('',#985,1.);
#985 = DIRECTION('',(0.,0.,1.));
#986 = ORIENTED_EDGE('',*,*,#899,.F.);
#987 = ORIENTED_EDGE('',*,*,#796,.T.);
#988 = ORIENTED_EDGE('',*,*,#989,.F.);
#989 = EDGE_CURVE('',#966,#789,#990,.T.);
#990 = LINE('',#991,#992);
#991 = CARTESIAN_POINT('',(-0.67,1.27,0.6));
#992 = VECTOR('',#993,1.);
#993 = DIRECTION('',(0.,0.,1.));
#994 = PLANE('',#995);
#995 = AXIS2_PLACEMENT_3D('',#996,#997,#998);
#996 = CARTESIAN_POINT('',(-0.97,0.97,0.6));
#997 = DIRECTION('',(-0.707106781187,0.707106781187,0.));
#998 = DIRECTION('',(0.,0.,1.));
#999 = ADVANCED_FACE('',(#1000),#1034,.T.);
#1000 = FACE_BOUND('',#1001,.F.);
#1001 = EDGE_LOOP('',(#1002,#1010,#1011,#1012,#1020,#1028));
#1002 = ORIENTED_EDGE('',*,*,#1003,.F.);
#1003 = EDGE_CURVE('',#925,#1004,#1006,.T.);
#1004 = VERTEX_POINT('',#1005);
#1005 = CARTESIAN_POINT('',(0.92,-1.02,0.599999999996));
#1006 = LINE('',#1007,#1008);
#1007 = CARTESIAN_POINT('',(0.97,-0.97,0.599999999996));
#1008 = VECTOR('',#1009,1.);
#1009 = DIRECTION('',(0.707106781187,0.707106781187,-1.46537E-12));
#1010 = ORIENTED_EDGE('',*,*,#924,.T.);
#1011 = ORIENTED_EDGE('',*,*,#764,.T.);
#1012 = ORIENTED_EDGE('',*,*,#1013,.T.);
#1013 = EDGE_CURVE('',#765,#1014,#1016,.T.);
#1014 = VERTEX_POINT('',#1015);
#1015 = CARTESIAN_POINT('',(1.27,-0.67,2.19));
#1016 = LINE('',#1017,#1018);
#1017 = CARTESIAN_POINT('',(1.376666666668,-0.563333333332,
    2.083333333332));
#1018 = VECTOR('',#1019,1.);
#1019 = DIRECTION('',(0.57735026919,0.57735026919,-0.57735026919));
#1020 = ORIENTED_EDGE('',*,*,#1021,.F.);
#1021 = EDGE_CURVE('',#1022,#1014,#1024,.T.);
#1022 = VERTEX_POINT('',#1023);
#1023 = CARTESIAN_POINT('',(1.27,-0.67,0.949999999998));
#1024 = LINE('',#1025,#1026);
#1025 = CARTESIAN_POINT('',(1.27,-0.67,0.599999999995));
#1026 = VECTOR('',#1027,1.);
#1027 = DIRECTION('',(0.,0.,1.));
#1028 = ORIENTED_EDGE('',*,*,#1029,.T.);
#1029 = EDGE_CURVE('',#1022,#1004,#1030,.T.);
#1030 = LINE('',#1031,#1032);
#1031 = CARTESIAN_POINT('',(1.053333333333,-0.886666666667,
    0.733333333329));
#1032 = VECTOR('',#1033,1.);
#1033 = DIRECTION('',(-0.57735026919,-0.57735026919,-0.577350269189));
#1034 = PLANE('',#1035);
#1035 = AXIS2_PLACEMENT_3D('',#1036,#1037,#1038);
#1036 = CARTESIAN_POINT('',(0.97,-0.97,0.599999999995));
#1037 = DIRECTION('',(0.707106781187,-0.707106781187,0.));
#1038 = DIRECTION('',(-0.,-0.,-1.));
#1039 = ADVANCED_FACE('',(#1040),#1074,.F.);
#1040 = FACE_BOUND('',#1041,.F.);
#1041 = EDGE_LOOP('',(#1042,#1043,#1044,#1052,#1060,#1068));
#1042 = ORIENTED_EDGE('',*,*,#788,.T.);
#1043 = ORIENTED_EDGE('',*,*,#989,.F.);
#1044 = ORIENTED_EDGE('',*,*,#1045,.F.);
#1045 = EDGE_CURVE('',#1046,#966,#1048,.T.);
#1046 = VERTEX_POINT('',#1047);
#1047 = CARTESIAN_POINT('',(-0.67,1.27,-1.E-15));
#1048 = LINE('',#1049,#1050);
#1049 = CARTESIAN_POINT('',(-0.67,1.27,-1.E-15));
#1050 = VECTOR('',#1051,1.);
#1051 = DIRECTION('',(0.,0.,1.));
#1052 = ORIENTED_EDGE('',*,*,#1053,.F.);
#1053 = EDGE_CURVE('',#1054,#1046,#1056,.T.);
#1054 = VERTEX_POINT('',#1055);
#1055 = CARTESIAN_POINT('',(0.670000000001,1.27,-1.E-15));
#1056 = LINE('',#1057,#1058);
#1057 = CARTESIAN_POINT('',(1.27,1.27,0.));
#1058 = VECTOR('',#1059,1.);
#1059 = DIRECTION('',(-1.,0.,0.));
#1060 = ORIENTED_EDGE('',*,*,#1061,.F.);
#1061 = EDGE_CURVE('',#1062,#1054,#1064,.T.);
#1062 = VERTEX_POINT('',#1063);
#1063 = CARTESIAN_POINT('',(0.67,1.27,0.599999999995));
#1064 = LINE('',#1065,#1066);
#1065 = CARTESIAN_POINT('',(0.670000000001,1.27,0.599999999995));
#1066 = VECTOR('',#1067,1.);
#1067 = DIRECTION('',(0.,0.,-1.));
#1068 = ORIENTED_EDGE('',*,*,#1069,.T.);
#1069 = EDGE_CURVE('',#1062,#781,#1070,.T.);
#1070 = LINE('',#1071,#1072);
#1071 = CARTESIAN_POINT('',(0.67,1.27,0.599999999995));
#1072 = VECTOR('',#1073,1.);
#1073 = DIRECTION('',(0.,0.,1.));
#1074 = PLANE('',#1075);
#1075 = AXIS2_PLACEMENT_3D('',#1076,#1077,#1078);
#1076 = CARTESIAN_POINT('',(1.27,1.27,0.));
#1077 = DIRECTION('',(0.,-1.,0.));
#1078 = DIRECTION('',(-1.,0.,0.));
#1079 = ADVANCED_FACE('',(#1080),#1098,.F.);
#1080 = FACE_BOUND('',#1081,.F.);
#1081 = EDGE_LOOP('',(#1082,#1083,#1084,#1092));
#1082 = ORIENTED_EDGE('',*,*,#1013,.F.);
#1083 = ORIENTED_EDGE('',*,*,#772,.T.);
#1084 = ORIENTED_EDGE('',*,*,#1085,.T.);
#1085 = EDGE_CURVE('',#773,#1086,#1088,.T.);
#1086 = VERTEX_POINT('',#1087);
#1087 = CARTESIAN_POINT('',(1.27,0.67,2.19));
#1088 = LINE('',#1089,#1090);
#1089 = CARTESIAN_POINT('',(1.600000000001,0.339999999999,1.859999999999
    ));
#1090 = VECTOR('',#1091,1.);
#1091 = DIRECTION('',(0.57735026919,-0.57735026919,-0.57735026919));
#1092 = ORIENTED_EDGE('',*,*,#1093,.F.);
#1093 = EDGE_CURVE('',#1014,#1086,#1094,.T.);
#1094 = LINE('',#1095,#1096);
#1095 = CARTESIAN_POINT('',(1.27,-0.67,2.19));
#1096 = VECTOR('',#1097,1.);
#1097 = DIRECTION('',(0.,1.,0.));
#1098 = PLANE('',#1099);
#1099 = AXIS2_PLACEMENT_3D('',#1100,#1101,#1102);
#1100 = CARTESIAN_POINT('',(1.095,-0.67,2.365));
#1101 = DIRECTION('',(-0.707106781187,0.,-0.707106781187));
#1102 = DIRECTION('',(0.,1.,0.));
#1103 = ADVANCED_FACE('',(#1104),#1131,.T.);
#1104 = FACE_BOUND('',#1105,.F.);
#1105 = EDGE_LOOP('',(#1106,#1114,#1122,#1128,#1129,#1130));
#1106 = ORIENTED_EDGE('',*,*,#1107,.F.);
#1107 = EDGE_CURVE('',#1108,#1062,#1110,.T.);
#1108 = VERTEX_POINT('',#1109);
#1109 = CARTESIAN_POINT('',(0.92,1.02,0.599999999996));
#1110 = LINE('',#1111,#1112);
#1111 = CARTESIAN_POINT('',(0.97,0.97,0.599999999996));
#1112 = VECTOR('',#1113,1.);
#1113 = DIRECTION('',(-0.707106781187,0.707106781187,1.46537E-12));
#1114 = ORIENTED_EDGE('',*,*,#1115,.F.);
#1115 = EDGE_CURVE('',#1116,#1108,#1118,.T.);
#1116 = VERTEX_POINT('',#1117);
#1117 = CARTESIAN_POINT('',(1.27,0.67,0.949999999998));
#1118 = LINE('',#1119,#1120);
#1119 = CARTESIAN_POINT('',(1.276666666667,0.663333333333,0.956666666662
    ));
#1120 = VECTOR('',#1121,1.);
#1121 = DIRECTION('',(-0.57735026919,0.57735026919,-0.577350269189));
#1122 = ORIENTED_EDGE('',*,*,#1123,.T.);
#1123 = EDGE_CURVE('',#1116,#1086,#1124,.T.);
#1124 = LINE('',#1125,#1126);
#1125 = CARTESIAN_POINT('',(1.27,0.67,0.599999999995));
#1126 = VECTOR('',#1127,1.);
#1127 = DIRECTION('',(0.,0.,1.));
#1128 = ORIENTED_EDGE('',*,*,#1085,.F.);
#1129 = ORIENTED_EDGE('',*,*,#780,.T.);
#1130 = ORIENTED_EDGE('',*,*,#1069,.F.);
#1131 = PLANE('',#1132);
#1132 = AXIS2_PLACEMENT_3D('',#1133,#1134,#1135);
#1133 = CARTESIAN_POINT('',(0.97,0.97,0.599999999995));
#1134 = DIRECTION('',(0.707106781187,0.707106781187,0.));
#1135 = DIRECTION('',(-0.,-0.,-1.));
#1136 = ADVANCED_FACE('',(#1137),#1162,.F.);
#1137 = FACE_BOUND('',#1138,.F.);
#1138 = EDGE_LOOP('',(#1139,#1149,#1155,#1156));
#1139 = ORIENTED_EDGE('',*,*,#1140,.F.);
#1140 = EDGE_CURVE('',#1141,#1143,#1145,.T.);
#1141 = VERTEX_POINT('',#1142);
#1142 = CARTESIAN_POINT('',(-0.32,-0.32,0.599999999999));
#1143 = VERTEX_POINT('',#1144);
#1144 = CARTESIAN_POINT('',(-0.32,0.32,0.599999999999));
#1145 = LINE('',#1146,#1147);
#1146 = CARTESIAN_POINT('',(-0.32,-0.16,0.599999999999));
#1147 = VECTOR('',#1148,1.);
#1148 = DIRECTION('',(0.,1.,0.));
#1149 = ORIENTED_EDGE('',*,*,#1150,.T.);
#1150 = EDGE_CURVE('',#1141,#815,#1151,.T.);
#1151 = LINE('',#1152,#1153);
#1152 = CARTESIAN_POINT('',(-0.32,-0.32,0.));
#1153 = VECTOR('',#1154,1.);
#1154 = DIRECTION('',(0.,0.,1.));
#1155 = ORIENTED_EDGE('',*,*,#812,.F.);
#1156 = ORIENTED_EDGE('',*,*,#1157,.F.);
#1157 = EDGE_CURVE('',#1143,#813,#1158,.T.);
#1158 = LINE('',#1159,#1160);
#1159 = CARTESIAN_POINT('',(-0.32,0.32,0.));
#1160 = VECTOR('',#1161,1.);
#1161 = DIRECTION('',(0.,0.,1.));
#1162 = PLANE('',#1163);
#1163 = AXIS2_PLACEMENT_3D('',#1164,#1165,#1166);
#1164 = CARTESIAN_POINT('',(-0.32,-0.32,0.));
#1165 = DIRECTION('',(-1.,0.,0.));
#1166 = DIRECTION('',(0.,1.,0.));
#1167 = ADVANCED_FACE('',(#1168),#1186,.F.);
#1168 = FACE_BOUND('',#1169,.F.);
#1169 = EDGE_LOOP('',(#1170,#1178,#1184,#1185));
#1170 = ORIENTED_EDGE('',*,*,#1171,.F.);
#1171 = EDGE_CURVE('',#1172,#1141,#1174,.T.);
#1172 = VERTEX_POINT('',#1173);
#1173 = CARTESIAN_POINT('',(0.32,-0.32,0.599999999997));
#1174 = LINE('',#1175,#1176);
#1175 = CARTESIAN_POINT('',(0.160000000001,-0.32,0.599999999998));
#1176 = VECTOR('',#1177,1.);
#1177 = DIRECTION('',(-1.,0.,2.07234E-12));
#1178 = ORIENTED_EDGE('',*,*,#1179,.T.);
#1179 = EDGE_CURVE('',#1172,#831,#1180,.T.);
#1180 = LINE('',#1181,#1182);
#1181 = CARTESIAN_POINT('',(0.32,-0.32,0.));
#1182 = VECTOR('',#1183,1.);
#1183 = DIRECTION('',(0.,0.,1.));
#1184 = ORIENTED_EDGE('',*,*,#838,.F.);
#1185 = ORIENTED_EDGE('',*,*,#1150,.F.);
#1186 = PLANE('',#1187);
#1187 = AXIS2_PLACEMENT_3D('',#1188,#1189,#1190);
#1188 = CARTESIAN_POINT('',(0.32,-0.32,0.));
#1189 = DIRECTION('',(0.,-1.,0.));
#1190 = DIRECTION('',(-1.,0.,0.));
#1191 = ADVANCED_FACE('',(#1192),#1210,.F.);
#1192 = FACE_BOUND('',#1193,.F.);
#1193 = EDGE_LOOP('',(#1194,#1202,#1208,#1209));
#1194 = ORIENTED_EDGE('',*,*,#1195,.F.);
#1195 = EDGE_CURVE('',#1196,#1172,#1198,.T.);
#1196 = VERTEX_POINT('',#1197);
#1197 = CARTESIAN_POINT('',(0.32,0.32,0.599999999997));
#1198 = LINE('',#1199,#1200);
#1199 = CARTESIAN_POINT('',(0.32,0.16,0.599999999997));
#1200 = VECTOR('',#1201,1.);
#1201 = DIRECTION('',(0.,-1.,0.));
#1202 = ORIENTED_EDGE('',*,*,#1203,.T.);
#1203 = EDGE_CURVE('',#1196,#823,#1204,.T.);
#1204 = LINE('',#1205,#1206);
#1205 = CARTESIAN_POINT('',(0.32,0.32,0.));
#1206 = VECTOR('',#1207,1.);
#1207 = DIRECTION('',(0.,0.,1.));
#1208 = ORIENTED_EDGE('',*,*,#830,.F.);
#1209 = ORIENTED_EDGE('',*,*,#1179,.F.);
#1210 = PLANE('',#1211);
#1211 = AXIS2_PLACEMENT_3D('',#1212,#1213,#1214);
#1212 = CARTESIAN_POINT('',(0.32,0.32,0.));
#1213 = DIRECTION('',(1.,0.,0.));
#1214 = DIRECTION('',(0.,-1.,0.));
#1215 = ADVANCED_FACE('',(#1216),#1227,.F.);
#1216 = FACE_BOUND('',#1217,.F.);
#1217 = EDGE_LOOP('',(#1218,#1224,#1225,#1226));
#1218 = ORIENTED_EDGE('',*,*,#1219,.F.);
#1219 = EDGE_CURVE('',#1143,#1196,#1220,.T.);
#1220 = LINE('',#1221,#1222);
#1221 = CARTESIAN_POINT('',(-0.159999999999,0.32,0.599999999998));
#1222 = VECTOR('',#1223,1.);
#1223 = DIRECTION('',(1.,0.,-2.07234E-12));
#1224 = ORIENTED_EDGE('',*,*,#1157,.T.);
#1225 = ORIENTED_EDGE('',*,*,#822,.F.);
#1226 = ORIENTED_EDGE('',*,*,#1203,.F.);
#1227 = PLANE('',#1228);
#1228 = AXIS2_PLACEMENT_3D('',#1229,#1230,#1231);
#1229 = CARTESIAN_POINT('',(-0.32,0.32,0.));
#1230 = DIRECTION('',(0.,1.,0.));
#1231 = DIRECTION('',(1.,0.,0.));
#1232 = ADVANCED_FACE('',(#1233,#1295),#1301,.T.);
#1233 = FACE_BOUND('',#1234,.T.);
#1234 = EDGE_LOOP('',(#1235,#1236,#1242,#1243,#1251,#1259,#1265,#1266,
    #1272,#1273,#1281,#1289));
#1235 = ORIENTED_EDGE('',*,*,#852,.T.);
#1236 = ORIENTED_EDGE('',*,*,#1237,.T.);
#1237 = EDGE_CURVE('',#855,#964,#1238,.T.);
#1238 = LINE('',#1239,#1240);
#1239 = CARTESIAN_POINT('',(-0.92,-0.67,0.6));
#1240 = VECTOR('',#1241,1.);
#1241 = DIRECTION('',(0.,1.,-2.2E-16));
#1242 = ORIENTED_EDGE('',*,*,#963,.T.);
#1243 = ORIENTED_EDGE('',*,*,#1244,.F.);
#1244 = EDGE_CURVE('',#1245,#966,#1247,.T.);
#1245 = VERTEX_POINT('',#1246);
#1246 = CARTESIAN_POINT('',(-0.67,0.77,0.6));
#1247 = LINE('',#1248,#1249);
#1248 = CARTESIAN_POINT('',(-0.67,-1.27,0.6));
#1249 = VECTOR('',#1250,1.);
#1250 = DIRECTION('',(0.,1.,-2.2E-16));
#1251 = ORIENTED_EDGE('',*,*,#1252,.T.);
#1252 = EDGE_CURVE('',#1245,#1253,#1255,.T.);
#1253 = VERTEX_POINT('',#1254);
#1254 = CARTESIAN_POINT('',(0.670000000001,0.77,0.599999999997));
#1255 = LINE('',#1256,#1257);
#1256 = CARTESIAN_POINT('',(-1.27,0.77,0.6));
#1257 = VECTOR('',#1258,1.);
#1258 = DIRECTION('',(1.,0.,0.));
#1259 = ORIENTED_EDGE('',*,*,#1260,.T.);
#1260 = EDGE_CURVE('',#1253,#1062,#1261,.T.);
#1261 = LINE('',#1262,#1263);
#1262 = CARTESIAN_POINT('',(0.670000000001,-1.27,0.599999999995));
#1263 = VECTOR('',#1264,1.);
#1264 = DIRECTION('',(0.,1.,-2.2E-16));
#1265 = ORIENTED_EDGE('',*,*,#1107,.F.);
#1266 = ORIENTED_EDGE('',*,*,#1267,.F.);
#1267 = EDGE_CURVE('',#1004,#1108,#1268,.T.);
#1268 = LINE('',#1269,#1270);
#1269 = CARTESIAN_POINT('',(0.92,-0.67,0.599999999996));
#1270 = VECTOR('',#1271,1.);
#1271 = DIRECTION('',(0.,1.,-2.2E-16));
#1272 = ORIENTED_EDGE('',*,*,#1003,.F.);
#1273 = ORIENTED_EDGE('',*,*,#1274,.T.);
#1274 = EDGE_CURVE('',#925,#1275,#1277,.T.);
#1275 = VERTEX_POINT('',#1276);
#1276 = CARTESIAN_POINT('',(0.670000000001,-0.77,0.599999999997));
#1277 = LINE('',#1278,#1279);
#1278 = CARTESIAN_POINT('',(0.670000000001,-1.27,0.599999999995));
#1279 = VECTOR('',#1280,1.);
#1280 = DIRECTION('',(0.,1.,-2.2E-16));
#1281 = ORIENTED_EDGE('',*,*,#1282,.F.);
#1282 = EDGE_CURVE('',#1283,#1275,#1285,.T.);
#1283 = VERTEX_POINT('',#1284);
#1284 = CARTESIAN_POINT('',(-0.67,-0.77,0.6));
#1285 = LINE('',#1286,#1287);
#1286 = CARTESIAN_POINT('',(-1.27,-0.77,0.6));
#1287 = VECTOR('',#1288,1.);
#1288 = DIRECTION('',(1.,0.,0.));
#1289 = ORIENTED_EDGE('',*,*,#1290,.F.);
#1290 = EDGE_CURVE('',#853,#1283,#1291,.T.);
#1291 = LINE('',#1292,#1293);
#1292 = CARTESIAN_POINT('',(-0.67,-1.27,0.6));
#1293 = VECTOR('',#1294,1.);
#1294 = DIRECTION('',(0.,1.,-2.2E-16));
#1295 = FACE_BOUND('',#1296,.T.);
#1296 = EDGE_LOOP('',(#1297,#1298,#1299,#1300));
#1297 = ORIENTED_EDGE('',*,*,#1140,.F.);
#1298 = ORIENTED_EDGE('',*,*,#1171,.F.);
#1299 = ORIENTED_EDGE('',*,*,#1195,.F.);
#1300 = ORIENTED_EDGE('',*,*,#1219,.F.);
#1301 = PLANE('',#1302);
#1302 = AXIS2_PLACEMENT_3D('',#1303,#1304,#1305);
#1303 = CARTESIAN_POINT('',(6.605E-14,1.5E-16,0.599999999998));
#1304 = DIRECTION('',(-2.07234E-12,-0.,-1.));
#1305 = DIRECTION('',(-1.,0.,2.07234E-12));
#1306 = ADVANCED_FACE('',(#1307),#1318,.F.);
#1307 = FACE_BOUND('',#1308,.T.);
#1308 = EDGE_LOOP('',(#1309,#1310,#1316,#1317));
#1309 = ORIENTED_EDGE('',*,*,#885,.F.);
#1310 = ORIENTED_EDGE('',*,*,#1311,.T.);
#1311 = EDGE_CURVE('',#878,#974,#1312,.T.);
#1312 = LINE('',#1313,#1314);
#1313 = CARTESIAN_POINT('',(-1.27,-0.67,0.950000000001));
#1314 = VECTOR('',#1315,1.);
#1315 = DIRECTION('',(0.,1.,-2.2E-16));
#1316 = ORIENTED_EDGE('',*,*,#973,.T.);
#1317 = ORIENTED_EDGE('',*,*,#1237,.F.);
#1318 = PLANE('',#1319);
#1319 = AXIS2_PLACEMENT_3D('',#1320,#1321,#1322);
#1320 = CARTESIAN_POINT('',(-1.095,-0.67,0.775));
#1321 = DIRECTION('',(0.707106781187,0.,0.707106781186));
#1322 = DIRECTION('',(-1.099999999999E-16,-1.,1.100000000001E-16));
#1323 = ADVANCED_FACE('',(#1324),#1330,.F.);
#1324 = FACE_BOUND('',#1325,.F.);
#1325 = EDGE_LOOP('',(#1326,#1327,#1328,#1329));
#1326 = ORIENTED_EDGE('',*,*,#877,.F.);
#1327 = ORIENTED_EDGE('',*,*,#1311,.T.);
#1328 = ORIENTED_EDGE('',*,*,#981,.T.);
#1329 = ORIENTED_EDGE('',*,*,#909,.T.);
#1330 = PLANE('',#1331);
#1331 = AXIS2_PLACEMENT_3D('',#1332,#1333,#1334);
#1332 = CARTESIAN_POINT('',(-1.27,1.27,0.));
#1333 = DIRECTION('',(1.,0.,0.));
#1334 = DIRECTION('',(0.,-1.,0.));
#1335 = ADVANCED_FACE('',(#1336),#1354,.F.);
#1336 = FACE_BOUND('',#1337,.F.);
#1337 = EDGE_LOOP('',(#1338,#1339,#1347,#1353));
#1338 = ORIENTED_EDGE('',*,*,#948,.F.);
#1339 = ORIENTED_EDGE('',*,*,#1340,.T.);
#1340 = EDGE_CURVE('',#941,#1341,#1343,.T.);
#1341 = VERTEX_POINT('',#1342);
#1342 = CARTESIAN_POINT('',(-0.67,-0.77,0.));
#1343 = LINE('',#1344,#1345);
#1344 = CARTESIAN_POINT('',(-0.67,-1.27,0.));
#1345 = VECTOR('',#1346,1.);
#1346 = DIRECTION('',(0.,1.,-2.2E-16));
#1347 = ORIENTED_EDGE('',*,*,#1348,.F.);
#1348 = EDGE_CURVE('',#1283,#1341,#1349,.T.);
#1349 = LINE('',#1350,#1351);
#1350 = CARTESIAN_POINT('',(-0.67,-0.77,0.));
#1351 = VECTOR('',#1352,1.);
#1352 = DIRECTION('',(0.,0.,-1.));
#1353 = ORIENTED_EDGE('',*,*,#1290,.F.);
#1354 = PLANE('',#1355);
#1355 = AXIS2_PLACEMENT_3D('',#1356,#1357,#1358);
#1356 = CARTESIAN_POINT('',(-0.67,-1.27,0.));
#1357 = DIRECTION('',(1.,0.,0.));
#1358 = DIRECTION('',(0.,2.2E-16,1.));
#1359 = ADVANCED_FACE('',(#1360),#1378,.F.);
#1360 = FACE_BOUND('',#1361,.F.);
#1361 = EDGE_LOOP('',(#1362,#1363,#1364,#1372));
#1362 = ORIENTED_EDGE('',*,*,#932,.F.);
#1363 = ORIENTED_EDGE('',*,*,#1274,.T.);
#1364 = ORIENTED_EDGE('',*,*,#1365,.F.);
#1365 = EDGE_CURVE('',#1366,#1275,#1368,.T.);
#1366 = VERTEX_POINT('',#1367);
#1367 = CARTESIAN_POINT('',(0.670000000001,-0.77,0.));
#1368 = LINE('',#1369,#1370);
#1369 = CARTESIAN_POINT('',(0.670000000001,-0.77,0.299999999997));
#1370 = VECTOR('',#1371,1.);
#1371 = DIRECTION('',(0.,0.,1.));
#1372 = ORIENTED_EDGE('',*,*,#1373,.F.);
#1373 = EDGE_CURVE('',#933,#1366,#1374,.T.);
#1374 = LINE('',#1375,#1376);
#1375 = CARTESIAN_POINT('',(0.670000000001,-1.27,0.));
#1376 = VECTOR('',#1377,1.);
#1377 = DIRECTION('',(0.,1.,-2.2E-16));
#1378 = PLANE('',#1379);
#1379 = AXIS2_PLACEMENT_3D('',#1380,#1381,#1382);
#1380 = CARTESIAN_POINT('',(0.670000000001,-1.27,0.599999999995));
#1381 = DIRECTION('',(-1.,0.,0.));
#1382 = DIRECTION('',(0.,-2.2E-16,-1.));
#1383 = ADVANCED_FACE('',(#1384),#1395,.F.);
#1384 = FACE_BOUND('',#1385,.F.);
#1385 = EDGE_LOOP('',(#1386,#1387,#1388,#1389));
#1386 = ORIENTED_EDGE('',*,*,#1340,.F.);
#1387 = ORIENTED_EDGE('',*,*,#940,.T.);
#1388 = ORIENTED_EDGE('',*,*,#1373,.T.);
#1389 = ORIENTED_EDGE('',*,*,#1390,.F.);
#1390 = EDGE_CURVE('',#1341,#1366,#1391,.T.);
#1391 = LINE('',#1392,#1393);
#1392 = CARTESIAN_POINT('',(-1.27,-0.77,0.));
#1393 = VECTOR('',#1394,1.);
#1394 = DIRECTION('',(1.,0.,0.));
#1395 = PLANE('',#1396);
#1396 = AXIS2_PLACEMENT_3D('',#1397,#1398,#1399);
#1397 = CARTESIAN_POINT('',(4.E-17,-4.E-17,0.));
#1398 = DIRECTION('',(0.,0.,1.));
#1399 = DIRECTION('',(1.,0.,0.));
#1400 = ADVANCED_FACE('',(#1401),#1412,.F.);
#1401 = FACE_BOUND('',#1402,.F.);
#1402 = EDGE_LOOP('',(#1403,#1404,#1410,#1411));
#1403 = ORIENTED_EDGE('',*,*,#1029,.F.);
#1404 = ORIENTED_EDGE('',*,*,#1405,.T.);
#1405 = EDGE_CURVE('',#1022,#1116,#1406,.T.);
#1406 = LINE('',#1407,#1408);
#1407 = CARTESIAN_POINT('',(1.27,-0.67,0.949999999995));
#1408 = VECTOR('',#1409,1.);
#1409 = DIRECTION('',(0.,1.,-2.2E-16));
#1410 = ORIENTED_EDGE('',*,*,#1115,.T.);
#1411 = ORIENTED_EDGE('',*,*,#1267,.F.);
#1412 = PLANE('',#1413);
#1413 = AXIS2_PLACEMENT_3D('',#1414,#1415,#1416);
#1414 = CARTESIAN_POINT('',(1.095,-0.67,0.774999999996));
#1415 = DIRECTION('',(-0.707106781186,0.,0.707106781187));
#1416 = DIRECTION('',(-1.100000000001E-16,1.,-1.099999999999E-16));
#1417 = ADVANCED_FACE('',(#1418),#1459,.T.);
#1418 = FACE_BOUND('',#1419,.T.);
#1419 = EDGE_LOOP('',(#1420,#1430,#1438,#1446,#1452,#1453));
#1420 = ORIENTED_EDGE('',*,*,#1421,.F.);
#1421 = EDGE_CURVE('',#1422,#1424,#1426,.T.);
#1422 = VERTEX_POINT('',#1423);
#1423 = CARTESIAN_POINT('',(1.87,-1.27,0.6));
#1424 = VERTEX_POINT('',#1425);
#1425 = CARTESIAN_POINT('',(1.62,-1.02,0.6));
#1426 = LINE('',#1427,#1428);
#1427 = CARTESIAN_POINT('',(1.57,-0.97,0.6));
#1428 = VECTOR('',#1429,1.);
#1429 = DIRECTION('',(-0.707106781187,0.707106781187,1.46537E-12));
#1430 = ORIENTED_EDGE('',*,*,#1431,.T.);
#1431 = EDGE_CURVE('',#1422,#1432,#1434,.T.);
#1432 = VERTEX_POINT('',#1433);
#1433 = CARTESIAN_POINT('',(1.87,-1.27,2.54));
#1434 = LINE('',#1435,#1436);
#1435 = CARTESIAN_POINT('',(1.87,-1.27,0.6));
#1436 = VECTOR('',#1437,1.);
#1437 = DIRECTION('',(0.,0.,1.));
#1438 = ORIENTED_EDGE('',*,*,#1439,.T.);
#1439 = EDGE_CURVE('',#1432,#1440,#1442,.T.);
#1440 = VERTEX_POINT('',#1441);
#1441 = CARTESIAN_POINT('',(1.62,-1.02,2.54));
#1442 = LINE('',#1443,#1444);
#1443 = CARTESIAN_POINT('',(1.57,-0.97,2.54));
#1444 = VECTOR('',#1445,1.);
#1445 = DIRECTION('',(-0.707106781187,0.707106781187,0.));
#1446 = ORIENTED_EDGE('',*,*,#1447,.T.);
#1447 = EDGE_CURVE('',#1440,#1014,#1448,.T.);
#1448 = LINE('',#1449,#1450);
#1449 = CARTESIAN_POINT('',(0.94,-0.34,1.86));
#1450 = VECTOR('',#1451,1.);
#1451 = DIRECTION('',(-0.57735026919,0.57735026919,-0.57735026919));
#1452 = ORIENTED_EDGE('',*,*,#1021,.F.);
#1453 = ORIENTED_EDGE('',*,*,#1454,.T.);
#1454 = EDGE_CURVE('',#1022,#1424,#1455,.T.);
#1455 = LINE('',#1456,#1457);
#1456 = CARTESIAN_POINT('',(1.486666666667,-0.886666666667,
    0.733333333333));
#1457 = VECTOR('',#1458,1.);
#1458 = DIRECTION('',(0.577350269189,-0.577350269189,-0.57735026919));
#1459 = PLANE('',#1460);
#1460 = AXIS2_PLACEMENT_3D('',#1461,#1462,#1463);
#1461 = CARTESIAN_POINT('',(1.57,-0.97,0.6));
#1462 = DIRECTION('',(-0.707106781187,-0.707106781187,0.));
#1463 = DIRECTION('',(0.,0.,1.));
#1464 = ADVANCED_FACE('',(#1465),#1483,.F.);
#1465 = FACE_BOUND('',#1466,.F.);
#1466 = EDGE_LOOP('',(#1467,#1475,#1476,#1477));
#1467 = ORIENTED_EDGE('',*,*,#1468,.F.);
#1468 = EDGE_CURVE('',#1253,#1469,#1471,.T.);
#1469 = VERTEX_POINT('',#1470);
#1470 = CARTESIAN_POINT('',(0.670000000001,0.77,0.));
#1471 = LINE('',#1472,#1473);
#1472 = CARTESIAN_POINT('',(0.670000000001,0.77,0.599999999997));
#1473 = VECTOR('',#1474,1.);
#1474 = DIRECTION('',(0.,0.,-1.));
#1475 = ORIENTED_EDGE('',*,*,#1260,.T.);
#1476 = ORIENTED_EDGE('',*,*,#1061,.T.);
#1477 = ORIENTED_EDGE('',*,*,#1478,.F.);
#1478 = EDGE_CURVE('',#1469,#1054,#1479,.T.);
#1479 = LINE('',#1480,#1481);
#1480 = CARTESIAN_POINT('',(0.670000000001,-1.27,0.));
#1481 = VECTOR('',#1482,1.);
#1482 = DIRECTION('',(0.,1.,-2.2E-16));
#1483 = PLANE('',#1484);
#1484 = AXIS2_PLACEMENT_3D('',#1485,#1486,#1487);
#1485 = CARTESIAN_POINT('',(0.670000000001,-1.27,0.599999999995));
#1486 = DIRECTION('',(-1.,0.,0.));
#1487 = DIRECTION('',(0.,-2.2E-16,-1.));
#1488 = ADVANCED_FACE('',(#1489),#1507,.F.);
#1489 = FACE_BOUND('',#1490,.F.);
#1490 = EDGE_LOOP('',(#1491,#1499,#1505,#1506));
#1491 = ORIENTED_EDGE('',*,*,#1492,.F.);
#1492 = EDGE_CURVE('',#1493,#1245,#1495,.T.);
#1493 = VERTEX_POINT('',#1494);
#1494 = CARTESIAN_POINT('',(-0.67,0.77,0.));
#1495 = LINE('',#1496,#1497);
#1496 = CARTESIAN_POINT('',(-0.67,0.77,0.3));
#1497 = VECTOR('',#1498,1.);
#1498 = DIRECTION('',(0.,0.,1.));
#1499 = ORIENTED_EDGE('',*,*,#1500,.T.);
#1500 = EDGE_CURVE('',#1493,#1046,#1501,.T.);
#1501 = LINE('',#1502,#1503);
#1502 = CARTESIAN_POINT('',(-0.67,-1.27,0.));
#1503 = VECTOR('',#1504,1.);
#1504 = DIRECTION('',(0.,1.,-2.2E-16));
#1505 = ORIENTED_EDGE('',*,*,#1045,.T.);
#1506 = ORIENTED_EDGE('',*,*,#1244,.F.);
#1507 = PLANE('',#1508);
#1508 = AXIS2_PLACEMENT_3D('',#1509,#1510,#1511);
#1509 = CARTESIAN_POINT('',(-0.67,-1.27,0.));
#1510 = DIRECTION('',(1.,0.,0.));
#1511 = DIRECTION('',(0.,2.2E-16,1.));
#1512 = ADVANCED_FACE('',(#1513),#1524,.F.);
#1513 = FACE_BOUND('',#1514,.F.);
#1514 = EDGE_LOOP('',(#1515,#1516,#1522,#1523));
#1515 = ORIENTED_EDGE('',*,*,#1500,.F.);
#1516 = ORIENTED_EDGE('',*,*,#1517,.T.);
#1517 = EDGE_CURVE('',#1493,#1469,#1518,.T.);
#1518 = LINE('',#1519,#1520);
#1519 = CARTESIAN_POINT('',(-1.27,0.77,0.));
#1520 = VECTOR('',#1521,1.);
#1521 = DIRECTION('',(1.,0.,0.));
#1522 = ORIENTED_EDGE('',*,*,#1478,.T.);
#1523 = ORIENTED_EDGE('',*,*,#1053,.T.);
#1524 = PLANE('',#1525);
#1525 = AXIS2_PLACEMENT_3D('',#1526,#1527,#1528);
#1526 = CARTESIAN_POINT('',(4.E-17,-4.E-17,0.));
#1527 = DIRECTION('',(0.,0.,1.));
#1528 = DIRECTION('',(1.,0.,0.));
#1529 = ADVANCED_FACE('',(#1530),#1548,.F.);
#1530 = FACE_BOUND('',#1531,.F.);
#1531 = EDGE_LOOP('',(#1532,#1540,#1546,#1547));
#1532 = ORIENTED_EDGE('',*,*,#1533,.F.);
#1533 = EDGE_CURVE('',#1534,#1086,#1536,.T.);
#1534 = VERTEX_POINT('',#1535);
#1535 = CARTESIAN_POINT('',(1.62,1.02,2.54));
#1536 = LINE('',#1537,#1538);
#1537 = CARTESIAN_POINT('',(1.163333333333,0.563333333333,2.083333333333
    ));
#1538 = VECTOR('',#1539,1.);
#1539 = DIRECTION('',(-0.57735026919,-0.57735026919,-0.57735026919));
#1540 = ORIENTED_EDGE('',*,*,#1541,.T.);
#1541 = EDGE_CURVE('',#1534,#1440,#1542,.T.);
#1542 = LINE('',#1543,#1544);
#1543 = CARTESIAN_POINT('',(1.62,0.67,2.54));
#1544 = VECTOR('',#1545,1.);
#1545 = DIRECTION('',(0.,-1.,0.));
#1546 = ORIENTED_EDGE('',*,*,#1447,.T.);
#1547 = ORIENTED_EDGE('',*,*,#1093,.T.);
#1548 = PLANE('',#1549);
#1549 = AXIS2_PLACEMENT_3D('',#1550,#1551,#1552);
#1550 = CARTESIAN_POINT('',(1.445,0.67,2.365));
#1551 = DIRECTION('',(0.707106781187,0.,-0.707106781187));
#1552 = DIRECTION('',(0.,-1.,0.));
#1553 = ADVANCED_FACE('',(#1554),#1588,.T.);
#1554 = FACE_BOUND('',#1555,.T.);
#1555 = EDGE_LOOP('',(#1556,#1566,#1572,#1573,#1574,#1582));
#1556 = ORIENTED_EDGE('',*,*,#1557,.F.);
#1557 = EDGE_CURVE('',#1558,#1560,#1562,.T.);
#1558 = VERTEX_POINT('',#1559);
#1559 = CARTESIAN_POINT('',(1.62,1.02,0.6));
#1560 = VERTEX_POINT('',#1561);
#1561 = CARTESIAN_POINT('',(1.87,1.27,0.6));
#1562 = LINE('',#1563,#1564);
#1563 = CARTESIAN_POINT('',(1.57,0.97,0.6));
#1564 = VECTOR('',#1565,1.);
#1565 = DIRECTION('',(0.707106781187,0.707106781187,-1.46537E-12));
#1566 = ORIENTED_EDGE('',*,*,#1567,.F.);
#1567 = EDGE_CURVE('',#1116,#1558,#1568,.T.);
#1568 = LINE('',#1569,#1570);
#1569 = CARTESIAN_POINT('',(1.263333333334,0.663333333334,0.956666666667
    ));
#1570 = VECTOR('',#1571,1.);
#1571 = DIRECTION('',(0.577350269189,0.577350269189,-0.57735026919));
#1572 = ORIENTED_EDGE('',*,*,#1123,.T.);
#1573 = ORIENTED_EDGE('',*,*,#1533,.F.);
#1574 = ORIENTED_EDGE('',*,*,#1575,.T.);
#1575 = EDGE_CURVE('',#1534,#1576,#1578,.T.);
#1576 = VERTEX_POINT('',#1577);
#1577 = CARTESIAN_POINT('',(1.87,1.27,2.54));
#1578 = LINE('',#1579,#1580);
#1579 = CARTESIAN_POINT('',(1.57,0.97,2.54));
#1580 = VECTOR('',#1581,1.);
#1581 = DIRECTION('',(0.707106781187,0.707106781187,0.));
#1582 = ORIENTED_EDGE('',*,*,#1583,.F.);
#1583 = EDGE_CURVE('',#1560,#1576,#1584,.T.);
#1584 = LINE('',#1585,#1586);
#1585 = CARTESIAN_POINT('',(1.87,1.27,0.6));
#1586 = VECTOR('',#1587,1.);
#1587 = DIRECTION('',(0.,0.,1.));
#1588 = PLANE('',#1589);
#1589 = AXIS2_PLACEMENT_3D('',#1590,#1591,#1592);
#1590 = CARTESIAN_POINT('',(1.57,0.97,0.6));
#1591 = DIRECTION('',(-0.707106781187,0.707106781187,0.));
#1592 = DIRECTION('',(0.,0.,1.));
#1593 = ADVANCED_FACE('',(#1594),#1600,.F.);
#1594 = FACE_BOUND('',#1595,.F.);
#1595 = EDGE_LOOP('',(#1596,#1597,#1598,#1599));
#1596 = ORIENTED_EDGE('',*,*,#1348,.T.);
#1597 = ORIENTED_EDGE('',*,*,#1390,.T.);
#1598 = ORIENTED_EDGE('',*,*,#1365,.T.);
#1599 = ORIENTED_EDGE('',*,*,#1282,.F.);
#1600 = PLANE('',#1601);
#1601 = AXIS2_PLACEMENT_3D('',#1602,#1603,#1604);
#1602 = CARTESIAN_POINT('',(-1.27,-0.77,0.));
#1603 = DIRECTION('',(0.,-1.,0.));
#1604 = DIRECTION('',(0.,0.,1.));
#1605 = ADVANCED_FACE('',(#1606),#1612,.F.);
#1606 = FACE_BOUND('',#1607,.F.);
#1607 = EDGE_LOOP('',(#1608,#1609,#1610,#1611));
#1608 = ORIENTED_EDGE('',*,*,#1492,.T.);
#1609 = ORIENTED_EDGE('',*,*,#1252,.T.);
#1610 = ORIENTED_EDGE('',*,*,#1468,.T.);
#1611 = ORIENTED_EDGE('',*,*,#1517,.F.);
#1612 = PLANE('',#1613);
#1613 = AXIS2_PLACEMENT_3D('',#1614,#1615,#1616);
#1614 = CARTESIAN_POINT('',(-1.27,0.77,0.6));
#1615 = DIRECTION('',(0.,1.,0.));
#1616 = DIRECTION('',(0.,0.,-1.));
#1617 = ADVANCED_FACE('',(#1618),#1629,.F.);
#1618 = FACE_BOUND('',#1619,.T.);
#1619 = EDGE_LOOP('',(#1620,#1621,#1622,#1623));
#1620 = ORIENTED_EDGE('',*,*,#1454,.F.);
#1621 = ORIENTED_EDGE('',*,*,#1405,.T.);
#1622 = ORIENTED_EDGE('',*,*,#1567,.T.);
#1623 = ORIENTED_EDGE('',*,*,#1624,.F.);
#1624 = EDGE_CURVE('',#1424,#1558,#1625,.T.);
#1625 = LINE('',#1626,#1627);
#1626 = CARTESIAN_POINT('',(1.62,-0.67,0.6));
#1627 = VECTOR('',#1628,1.);
#1628 = DIRECTION('',(0.,1.,-2.2E-16));
#1629 = PLANE('',#1630);
#1630 = AXIS2_PLACEMENT_3D('',#1631,#1632,#1633);
#1631 = CARTESIAN_POINT('',(1.445,-0.67,0.775));
#1632 = DIRECTION('',(0.707106781187,0.,0.707106781186));
#1633 = DIRECTION('',(-1.099999999999E-16,-1.,1.100000000001E-16));
#1634 = ADVANCED_FACE('',(#1635,#1710),#1744,.T.);
#1635 = FACE_BOUND('',#1636,.T.);
#1636 = EDGE_LOOP('',(#1637,#1638,#1639,#1640,#1648,#1656,#1664,#1672,
    #1680,#1688,#1696,#1704));
#1637 = ORIENTED_EDGE('',*,*,#1421,.T.);
#1638 = ORIENTED_EDGE('',*,*,#1624,.T.);
#1639 = ORIENTED_EDGE('',*,*,#1557,.T.);
#1640 = ORIENTED_EDGE('',*,*,#1641,.F.);
#1641 = EDGE_CURVE('',#1642,#1560,#1644,.T.);
#1642 = VERTEX_POINT('',#1643);
#1643 = CARTESIAN_POINT('',(1.87,0.77,0.6));
#1644 = LINE('',#1645,#1646);
#1645 = CARTESIAN_POINT('',(1.87,-1.27,0.6));
#1646 = VECTOR('',#1647,1.);
#1647 = DIRECTION('',(0.,1.,-2.2E-16));
#1648 = ORIENTED_EDGE('',*,*,#1649,.T.);
#1649 = EDGE_CURVE('',#1642,#1650,#1652,.T.);
#1650 = VERTEX_POINT('',#1651);
#1651 = CARTESIAN_POINT('',(3.210000000001,0.77,0.599999999997));
#1652 = LINE('',#1653,#1654);
#1653 = CARTESIAN_POINT('',(1.27,0.77,0.6));
#1654 = VECTOR('',#1655,1.);
#1655 = DIRECTION('',(1.,0.,0.));
#1656 = ORIENTED_EDGE('',*,*,#1657,.T.);
#1657 = EDGE_CURVE('',#1650,#1658,#1660,.T.);
#1658 = VERTEX_POINT('',#1659);
#1659 = CARTESIAN_POINT('',(3.21,1.27,0.599999999995));
#1660 = LINE('',#1661,#1662);
#1661 = CARTESIAN_POINT('',(3.210000000001,-1.27,0.599999999995));
#1662 = VECTOR('',#1663,1.);
#1663 = DIRECTION('',(0.,1.,-2.2E-16));
#1664 = ORIENTED_EDGE('',*,*,#1665,.F.);
#1665 = EDGE_CURVE('',#1666,#1658,#1668,.T.);
#1666 = VERTEX_POINT('',#1667);
#1667 = CARTESIAN_POINT('',(3.46,1.02,0.599999999996));
#1668 = LINE('',#1669,#1670);
#1669 = CARTESIAN_POINT('',(3.51,0.97,0.599999999996));
#1670 = VECTOR('',#1671,1.);
#1671 = DIRECTION('',(-0.707106781187,0.707106781187,1.46537E-12));
#1672 = ORIENTED_EDGE('',*,*,#1673,.F.);
#1673 = EDGE_CURVE('',#1674,#1666,#1676,.T.);
#1674 = VERTEX_POINT('',#1675);
#1675 = CARTESIAN_POINT('',(3.46,-1.02,0.599999999996));
#1676 = LINE('',#1677,#1678);
#1677 = CARTESIAN_POINT('',(3.46,-0.67,0.599999999996));
#1678 = VECTOR('',#1679,1.);
#1679 = DIRECTION('',(0.,1.,-2.2E-16));
#1680 = ORIENTED_EDGE('',*,*,#1681,.F.);
#1681 = EDGE_CURVE('',#1682,#1674,#1684,.T.);
#1682 = VERTEX_POINT('',#1683);
#1683 = CARTESIAN_POINT('',(3.21,-1.27,0.599999999995));
#1684 = LINE('',#1685,#1686);
#1685 = CARTESIAN_POINT('',(3.51,-0.97,0.599999999996));
#1686 = VECTOR('',#1687,1.);
#1687 = DIRECTION('',(0.707106781187,0.707106781187,-1.46537E-12));
#1688 = ORIENTED_EDGE('',*,*,#1689,.T.);
#1689 = EDGE_CURVE('',#1682,#1690,#1692,.T.);
#1690 = VERTEX_POINT('',#1691);
#1691 = CARTESIAN_POINT('',(3.210000000001,-0.77,0.599999999997));
#1692 = LINE('',#1693,#1694);
#1693 = CARTESIAN_POINT('',(3.210000000001,-1.27,0.599999999995));
#1694 = VECTOR('',#1695,1.);
#1695 = DIRECTION('',(0.,1.,-2.2E-16));
#1696 = ORIENTED_EDGE('',*,*,#1697,.F.);
#1697 = EDGE_CURVE('',#1698,#1690,#1700,.T.);
#1698 = VERTEX_POINT('',#1699);
#1699 = CARTESIAN_POINT('',(1.87,-0.77,0.6));
#1700 = LINE('',#1701,#1702);
#1701 = CARTESIAN_POINT('',(1.27,-0.77,0.6));
#1702 = VECTOR('',#1703,1.);
#1703 = DIRECTION('',(1.,0.,0.));
#1704 = ORIENTED_EDGE('',*,*,#1705,.F.);
#1705 = EDGE_CURVE('',#1422,#1698,#1706,.T.);
#1706 = LINE('',#1707,#1708);
#1707 = CARTESIAN_POINT('',(1.87,-1.27,0.6));
#1708 = VECTOR('',#1709,1.);
#1709 = DIRECTION('',(0.,1.,-2.2E-16));
#1710 = FACE_BOUND('',#1711,.T.);
#1711 = EDGE_LOOP('',(#1712,#1722,#1730,#1738));
#1712 = ORIENTED_EDGE('',*,*,#1713,.F.);
#1713 = EDGE_CURVE('',#1714,#1716,#1718,.T.);
#1714 = VERTEX_POINT('',#1715);
#1715 = CARTESIAN_POINT('',(2.22,-0.32,0.599999999999));
#1716 = VERTEX_POINT('',#1717);
#1717 = CARTESIAN_POINT('',(2.22,0.32,0.599999999999));
#1718 = LINE('',#1719,#1720);
#1719 = CARTESIAN_POINT('',(2.22,-0.16,0.599999999999));
#1720 = VECTOR('',#1721,1.);
#1721 = DIRECTION('',(0.,1.,0.));
#1722 = ORIENTED_EDGE('',*,*,#1723,.F.);
#1723 = EDGE_CURVE('',#1724,#1714,#1726,.T.);
#1724 = VERTEX_POINT('',#1725);
#1725 = CARTESIAN_POINT('',(2.86,-0.32,0.599999999997));
#1726 = LINE('',#1727,#1728);
#1727 = CARTESIAN_POINT('',(2.700000000001,-0.32,0.599999999998));
#1728 = VECTOR('',#1729,1.);
#1729 = DIRECTION('',(-1.,0.,2.07234E-12));
#1730 = ORIENTED_EDGE('',*,*,#1731,.F.);
#1731 = EDGE_CURVE('',#1732,#1724,#1734,.T.);
#1732 = VERTEX_POINT('',#1733);
#1733 = CARTESIAN_POINT('',(2.86,0.32,0.599999999997));
#1734 = LINE('',#1735,#1736);
#1735 = CARTESIAN_POINT('',(2.86,0.16,0.599999999997));
#1736 = VECTOR('',#1737,1.);
#1737 = DIRECTION('',(0.,-1.,0.));
#1738 = ORIENTED_EDGE('',*,*,#1739,.F.);
#1739 = EDGE_CURVE('',#1716,#1732,#1740,.T.);
#1740 = LINE('',#1741,#1742);
#1741 = CARTESIAN_POINT('',(2.380000000001,0.32,0.599999999998));
#1742 = VECTOR('',#1743,1.);
#1743 = DIRECTION('',(1.,0.,-2.07234E-12));
#1744 = PLANE('',#1745);
#1745 = AXIS2_PLACEMENT_3D('',#1746,#1747,#1748);
#1746 = CARTESIAN_POINT('',(2.54,1.5E-16,0.599999999998));
#1747 = DIRECTION('',(-2.07234E-12,-0.,-1.));
#1748 = DIRECTION('',(-1.,0.,2.07234E-12));
#1749 = ADVANCED_FACE('',(#1750),#1789,.F.);
#1750 = FACE_BOUND('',#1751,.F.);
#1751 = EDGE_LOOP('',(#1752,#1760,#1766,#1774,#1782,#1788));
#1752 = ORIENTED_EDGE('',*,*,#1753,.T.);
#1753 = EDGE_CURVE('',#1432,#1754,#1756,.T.);
#1754 = VERTEX_POINT('',#1755);
#1755 = CARTESIAN_POINT('',(3.21,-1.27,2.54));
#1756 = LINE('',#1757,#1758);
#1757 = CARTESIAN_POINT('',(1.27,-1.27,2.54));
#1758 = VECTOR('',#1759,1.);
#1759 = DIRECTION('',(1.,0.,0.));
#1760 = ORIENTED_EDGE('',*,*,#1761,.F.);
#1761 = EDGE_CURVE('',#1682,#1754,#1762,.T.);
#1762 = LINE('',#1763,#1764);
#1763 = CARTESIAN_POINT('',(3.21,-1.27,0.599999999995));
#1764 = VECTOR('',#1765,1.);
#1765 = DIRECTION('',(0.,0.,1.));
#1766 = ORIENTED_EDGE('',*,*,#1767,.T.);
#1767 = EDGE_CURVE('',#1682,#1768,#1770,.T.);
#1768 = VERTEX_POINT('',#1769);
#1769 = CARTESIAN_POINT('',(3.210000000001,-1.27,0.));
#1770 = LINE('',#1771,#1772);
#1771 = CARTESIAN_POINT('',(3.210000000001,-1.27,0.599999999995));
#1772 = VECTOR('',#1773,1.);
#1773 = DIRECTION('',(0.,0.,-1.));
#1774 = ORIENTED_EDGE('',*,*,#1775,.F.);
#1775 = EDGE_CURVE('',#1776,#1768,#1778,.T.);
#1776 = VERTEX_POINT('',#1777);
#1777 = CARTESIAN_POINT('',(1.87,-1.27,0.));
#1778 = LINE('',#1779,#1780);
#1779 = CARTESIAN_POINT('',(1.27,-1.27,0.));
#1780 = VECTOR('',#1781,1.);
#1781 = DIRECTION('',(1.,0.,0.));
#1782 = ORIENTED_EDGE('',*,*,#1783,.T.);
#1783 = EDGE_CURVE('',#1776,#1422,#1784,.T.);
#1784 = LINE('',#1785,#1786);
#1785 = CARTESIAN_POINT('',(1.87,-1.27,0.));
#1786 = VECTOR('',#1787,1.);
#1787 = DIRECTION('',(0.,0.,1.));
#1788 = ORIENTED_EDGE('',*,*,#1431,.T.);
#1789 = PLANE('',#1790);
#1790 = AXIS2_PLACEMENT_3D('',#1791,#1792,#1793);
#1791 = CARTESIAN_POINT('',(1.27,-1.27,0.));
#1792 = DIRECTION('',(0.,1.,0.));
#1793 = DIRECTION('',(1.,0.,0.));
#1794 = ADVANCED_FACE('',(#1795,#1831),#1865,.T.);
#1795 = FACE_BOUND('',#1796,.T.);
#1796 = EDGE_LOOP('',(#1797,#1798,#1799,#1807,#1815,#1823,#1829,#1830));
#1797 = ORIENTED_EDGE('',*,*,#1439,.F.);
#1798 = ORIENTED_EDGE('',*,*,#1753,.T.);
#1799 = ORIENTED_EDGE('',*,*,#1800,.T.);
#1800 = EDGE_CURVE('',#1754,#1801,#1803,.T.);
#1801 = VERTEX_POINT('',#1802);
#1802 = CARTESIAN_POINT('',(3.46,-1.02,2.54));
#1803 = LINE('',#1804,#1805);
#1804 = CARTESIAN_POINT('',(3.51,-0.97,2.54));
#1805 = VECTOR('',#1806,1.);
#1806 = DIRECTION('',(0.707106781187,0.707106781187,0.));
#1807 = ORIENTED_EDGE('',*,*,#1808,.T.);
#1808 = EDGE_CURVE('',#1801,#1809,#1811,.T.);
#1809 = VERTEX_POINT('',#1810);
#1810 = CARTESIAN_POINT('',(3.46,1.02,2.54));
#1811 = LINE('',#1812,#1813);
#1812 = CARTESIAN_POINT('',(3.46,-0.67,2.54));
#1813 = VECTOR('',#1814,1.);
#1814 = DIRECTION('',(0.,1.,0.));
#1815 = ORIENTED_EDGE('',*,*,#1816,.T.);
#1816 = EDGE_CURVE('',#1809,#1817,#1819,.T.);
#1817 = VERTEX_POINT('',#1818);
#1818 = CARTESIAN_POINT('',(3.21,1.27,2.54));
#1819 = LINE('',#1820,#1821);
#1820 = CARTESIAN_POINT('',(3.51,0.97,2.54));
#1821 = VECTOR('',#1822,1.);
#1822 = DIRECTION('',(-0.707106781187,0.707106781187,0.));
#1823 = ORIENTED_EDGE('',*,*,#1824,.T.);
#1824 = EDGE_CURVE('',#1817,#1576,#1825,.T.);
#1825 = LINE('',#1826,#1827);
#1826 = CARTESIAN_POINT('',(3.81,1.27,2.54));
#1827 = VECTOR('',#1828,1.);
#1828 = DIRECTION('',(-1.,0.,0.));
#1829 = ORIENTED_EDGE('',*,*,#1575,.F.);
#1830 = ORIENTED_EDGE('',*,*,#1541,.T.);
#1831 = FACE_BOUND('',#1832,.T.);
#1832 = EDGE_LOOP('',(#1833,#1843,#1851,#1859));
#1833 = ORIENTED_EDGE('',*,*,#1834,.F.);
#1834 = EDGE_CURVE('',#1835,#1837,#1839,.T.);
#1835 = VERTEX_POINT('',#1836);
#1836 = CARTESIAN_POINT('',(2.22,0.32,2.54));
#1837 = VERTEX_POINT('',#1838);
#1838 = CARTESIAN_POINT('',(2.22,-0.32,2.54));
#1839 = LINE('',#1840,#1841);
#1840 = CARTESIAN_POINT('',(2.22,-0.16,2.54));
#1841 = VECTOR('',#1842,1.);
#1842 = DIRECTION('',(0.,-1.,0.));
#1843 = ORIENTED_EDGE('',*,*,#1844,.F.);
#1844 = EDGE_CURVE('',#1845,#1835,#1847,.T.);
#1845 = VERTEX_POINT('',#1846);
#1846 = CARTESIAN_POINT('',(2.86,0.32,2.54));
#1847 = LINE('',#1848,#1849);
#1848 = CARTESIAN_POINT('',(2.38,0.32,2.54));
#1849 = VECTOR('',#1850,1.);
#1850 = DIRECTION('',(-1.,0.,0.));
#1851 = ORIENTED_EDGE('',*,*,#1852,.F.);
#1852 = EDGE_CURVE('',#1853,#1845,#1855,.T.);
#1853 = VERTEX_POINT('',#1854);
#1854 = CARTESIAN_POINT('',(2.86,-0.32,2.54));
#1855 = LINE('',#1856,#1857);
#1856 = CARTESIAN_POINT('',(2.86,0.16,2.54));
#1857 = VECTOR('',#1858,1.);
#1858 = DIRECTION('',(0.,1.,0.));
#1859 = ORIENTED_EDGE('',*,*,#1860,.F.);
#1860 = EDGE_CURVE('',#1837,#1853,#1861,.T.);
#1861 = LINE('',#1862,#1863);
#1862 = CARTESIAN_POINT('',(2.7,-0.32,2.54));
#1863 = VECTOR('',#1864,1.);
#1864 = DIRECTION('',(1.,0.,0.));
#1865 = PLANE('',#1866);
#1866 = AXIS2_PLACEMENT_3D('',#1867,#1868,#1869);
#1867 = CARTESIAN_POINT('',(2.54,-4.E-17,2.54));
#1868 = DIRECTION('',(0.,0.,1.));
#1869 = DIRECTION('',(1.,0.,0.));
#1870 = ADVANCED_FACE('',(#1871),#1903,.F.);
#1871 = FACE_BOUND('',#1872,.F.);
#1872 = EDGE_LOOP('',(#1873,#1874,#1875,#1883,#1891,#1897));
#1873 = ORIENTED_EDGE('',*,*,#1824,.T.);
#1874 = ORIENTED_EDGE('',*,*,#1583,.F.);
#1875 = ORIENTED_EDGE('',*,*,#1876,.F.);
#1876 = EDGE_CURVE('',#1877,#1560,#1879,.T.);
#1877 = VERTEX_POINT('',#1878);
#1878 = CARTESIAN_POINT('',(1.87,1.27,-1.E-15));
#1879 = LINE('',#1880,#1881);
#1880 = CARTESIAN_POINT('',(1.87,1.27,-1.E-15));
#1881 = VECTOR('',#1882,1.);
#1882 = DIRECTION('',(0.,0.,1.));
#1883 = ORIENTED_EDGE('',*,*,#1884,.F.);
#1884 = EDGE_CURVE('',#1885,#1877,#1887,.T.);
#1885 = VERTEX_POINT('',#1886);
#1886 = CARTESIAN_POINT('',(3.210000000001,1.27,-1.E-15));
#1887 = LINE('',#1888,#1889);
#1888 = CARTESIAN_POINT('',(3.81,1.27,0.));
#1889 = VECTOR('',#1890,1.);
#1890 = DIRECTION('',(-1.,0.,0.));
#1891 = ORIENTED_EDGE('',*,*,#1892,.F.);
#1892 = EDGE_CURVE('',#1658,#1885,#1893,.T.);
#1893 = LINE('',#1894,#1895);
#1894 = CARTESIAN_POINT('',(3.210000000001,1.27,0.599999999995));
#1895 = VECTOR('',#1896,1.);
#1896 = DIRECTION('',(0.,0.,-1.));
#1897 = ORIENTED_EDGE('',*,*,#1898,.T.);
#1898 = EDGE_CURVE('',#1658,#1817,#1899,.T.);
#1899 = LINE('',#1900,#1901);
#1900 = CARTESIAN_POINT('',(3.21,1.27,0.599999999995));
#1901 = VECTOR('',#1902,1.);
#1902 = DIRECTION('',(0.,0.,1.));
#1903 = PLANE('',#1904);
#1904 = AXIS2_PLACEMENT_3D('',#1905,#1906,#1907);
#1905 = CARTESIAN_POINT('',(3.81,1.27,0.));
#1906 = DIRECTION('',(0.,-1.,0.));
#1907 = DIRECTION('',(-1.,0.,0.));
#1908 = ADVANCED_FACE('',(#1909),#1927,.F.);
#1909 = FACE_BOUND('',#1910,.F.);
#1910 = EDGE_LOOP('',(#1911,#1912,#1920,#1926));
#1911 = ORIENTED_EDGE('',*,*,#1783,.F.);
#1912 = ORIENTED_EDGE('',*,*,#1913,.T.);
#1913 = EDGE_CURVE('',#1776,#1914,#1916,.T.);
#1914 = VERTEX_POINT('',#1915);
#1915 = CARTESIAN_POINT('',(1.87,-0.77,0.));
#1916 = LINE('',#1917,#1918);
#1917 = CARTESIAN_POINT('',(1.87,-1.27,0.));
#1918 = VECTOR('',#1919,1.);
#1919 = DIRECTION('',(0.,1.,-2.2E-16));
#1920 = ORIENTED_EDGE('',*,*,#1921,.F.);
#1921 = EDGE_CURVE('',#1698,#1914,#1922,.T.);
#1922 = LINE('',#1923,#1924);
#1923 = CARTESIAN_POINT('',(1.87,-0.77,0.));
#1924 = VECTOR('',#1925,1.);
#1925 = DIRECTION('',(0.,0.,-1.));
#1926 = ORIENTED_EDGE('',*,*,#1705,.F.);
#1927 = PLANE('',#1928);
#1928 = AXIS2_PLACEMENT_3D('',#1929,#1930,#1931);
#1929 = CARTESIAN_POINT('',(1.87,-1.27,0.));
#1930 = DIRECTION('',(1.,0.,0.));
#1931 = DIRECTION('',(0.,2.2E-16,1.));
#1932 = ADVANCED_FACE('',(#1933),#1951,.F.);
#1933 = FACE_BOUND('',#1934,.F.);
#1934 = EDGE_LOOP('',(#1935,#1936,#1944,#1950));
#1935 = ORIENTED_EDGE('',*,*,#1921,.T.);
#1936 = ORIENTED_EDGE('',*,*,#1937,.T.);
#1937 = EDGE_CURVE('',#1914,#1938,#1940,.T.);
#1938 = VERTEX_POINT('',#1939);
#1939 = CARTESIAN_POINT('',(3.210000000001,-0.77,0.));
#1940 = LINE('',#1941,#1942);
#1941 = CARTESIAN_POINT('',(1.27,-0.77,0.));
#1942 = VECTOR('',#1943,1.);
#1943 = DIRECTION('',(1.,0.,0.));
#1944 = ORIENTED_EDGE('',*,*,#1945,.T.);
#1945 = EDGE_CURVE('',#1938,#1690,#1946,.T.);
#1946 = LINE('',#1947,#1948);
#1947 = CARTESIAN_POINT('',(3.210000000001,-0.77,0.299999999997));
#1948 = VECTOR('',#1949,1.);
#1949 = DIRECTION('',(0.,0.,1.));
#1950 = ORIENTED_EDGE('',*,*,#1697,.F.);
#1951 = PLANE('',#1952);
#1952 = AXIS2_PLACEMENT_3D('',#1953,#1954,#1955);
#1953 = CARTESIAN_POINT('',(1.27,-0.77,0.));
#1954 = DIRECTION('',(0.,-1.,0.));
#1955 = DIRECTION('',(0.,0.,1.));
#1956 = ADVANCED_FACE('',(#1957),#1975,.F.);
#1957 = FACE_BOUND('',#1958,.F.);
#1958 = EDGE_LOOP('',(#1959,#1967,#1973,#1974));
#1959 = ORIENTED_EDGE('',*,*,#1960,.F.);
#1960 = EDGE_CURVE('',#1961,#1642,#1963,.T.);
#1961 = VERTEX_POINT('',#1962);
#1962 = CARTESIAN_POINT('',(1.87,0.77,0.));
#1963 = LINE('',#1964,#1965);
#1964 = CARTESIAN_POINT('',(1.87,0.77,0.3));
#1965 = VECTOR('',#1966,1.);
#1966 = DIRECTION('',(0.,0.,1.));
#1967 = ORIENTED_EDGE('',*,*,#1968,.T.);
#1968 = EDGE_CURVE('',#1961,#1877,#1969,.T.);
#1969 = LINE('',#1970,#1971);
#1970 = CARTESIAN_POINT('',(1.87,-1.27,0.));
#1971 = VECTOR('',#1972,1.);
#1972 = DIRECTION('',(0.,1.,-2.2E-16));
#1973 = ORIENTED_EDGE('',*,*,#1876,.T.);
#1974 = ORIENTED_EDGE('',*,*,#1641,.F.);
#1975 = PLANE('',#1976);
#1976 = AXIS2_PLACEMENT_3D('',#1977,#1978,#1979);
#1977 = CARTESIAN_POINT('',(1.87,-1.27,0.));
#1978 = DIRECTION('',(1.,0.,0.));
#1979 = DIRECTION('',(0.,2.2E-16,1.));
#1980 = ADVANCED_FACE('',(#1981),#1992,.F.);
#1981 = FACE_BOUND('',#1982,.F.);
#1982 = EDGE_LOOP('',(#1983,#1984,#1985,#1986));
#1983 = ORIENTED_EDGE('',*,*,#1767,.F.);
#1984 = ORIENTED_EDGE('',*,*,#1689,.T.);
#1985 = ORIENTED_EDGE('',*,*,#1945,.F.);
#1986 = ORIENTED_EDGE('',*,*,#1987,.F.);
#1987 = EDGE_CURVE('',#1768,#1938,#1988,.T.);
#1988 = LINE('',#1989,#1990);
#1989 = CARTESIAN_POINT('',(3.210000000001,-1.27,0.));
#1990 = VECTOR('',#1991,1.);
#1991 = DIRECTION('',(0.,1.,-2.2E-16));
#1992 = PLANE('',#1993);
#1993 = AXIS2_PLACEMENT_3D('',#1994,#1995,#1996);
#1994 = CARTESIAN_POINT('',(3.210000000001,-1.27,0.599999999995));
#1995 = DIRECTION('',(-1.,0.,0.));
#1996 = DIRECTION('',(0.,-2.2E-16,-1.));
#1997 = ADVANCED_FACE('',(#1998),#2016,.F.);
#1998 = FACE_BOUND('',#1999,.F.);
#1999 = EDGE_LOOP('',(#2000,#2001,#2002,#2010));
#2000 = ORIENTED_EDGE('',*,*,#1960,.T.);
#2001 = ORIENTED_EDGE('',*,*,#1649,.T.);
#2002 = ORIENTED_EDGE('',*,*,#2003,.T.);
#2003 = EDGE_CURVE('',#1650,#2004,#2006,.T.);
#2004 = VERTEX_POINT('',#2005);
#2005 = CARTESIAN_POINT('',(3.210000000001,0.77,0.));
#2006 = LINE('',#2007,#2008);
#2007 = CARTESIAN_POINT('',(3.210000000001,0.77,0.599999999997));
#2008 = VECTOR('',#2009,1.);
#2009 = DIRECTION('',(0.,0.,-1.));
#2010 = ORIENTED_EDGE('',*,*,#2011,.F.);
#2011 = EDGE_CURVE('',#1961,#2004,#2012,.T.);
#2012 = LINE('',#2013,#2014);
#2013 = CARTESIAN_POINT('',(1.27,0.77,0.));
#2014 = VECTOR('',#2015,1.);
#2015 = DIRECTION('',(1.,0.,0.));
#2016 = PLANE('',#2017);
#2017 = AXIS2_PLACEMENT_3D('',#2018,#2019,#2020);
#2018 = CARTESIAN_POINT('',(1.27,0.77,0.6));
#2019 = DIRECTION('',(0.,1.,0.));
#2020 = DIRECTION('',(0.,0.,-1.));
#2021 = ADVANCED_FACE('',(#2022),#2049,.T.);
#2022 = FACE_BOUND('',#2023,.F.);
#2023 = EDGE_LOOP('',(#2024,#2025,#2026,#2027,#2035,#2043));
#2024 = ORIENTED_EDGE('',*,*,#1681,.F.);
#2025 = ORIENTED_EDGE('',*,*,#1761,.T.);
#2026 = ORIENTED_EDGE('',*,*,#1800,.T.);
#2027 = ORIENTED_EDGE('',*,*,#2028,.T.);
#2028 = EDGE_CURVE('',#1801,#2029,#2031,.T.);
#2029 = VERTEX_POINT('',#2030);
#2030 = CARTESIAN_POINT('',(3.81,-0.67,2.19));
#2031 = LINE('',#2032,#2033);
#2032 = CARTESIAN_POINT('',(3.916666666668,-0.563333333332,
    2.083333333332));
#2033 = VECTOR('',#2034,1.);
#2034 = DIRECTION('',(0.57735026919,0.57735026919,-0.57735026919));
#2035 = ORIENTED_EDGE('',*,*,#2036,.F.);
#2036 = EDGE_CURVE('',#2037,#2029,#2039,.T.);
#2037 = VERTEX_POINT('',#2038);
#2038 = CARTESIAN_POINT('',(3.81,-0.67,0.949999999995));
#2039 = LINE('',#2040,#2041);
#2040 = CARTESIAN_POINT('',(3.81,-0.67,0.599999999995));
#2041 = VECTOR('',#2042,1.);
#2042 = DIRECTION('',(0.,0.,1.));
#2043 = ORIENTED_EDGE('',*,*,#2044,.T.);
#2044 = EDGE_CURVE('',#2037,#1674,#2045,.T.);
#2045 = LINE('',#2046,#2047);
#2046 = CARTESIAN_POINT('',(3.593333333333,-0.886666666667,
    0.733333333329));
#2047 = VECTOR('',#2048,1.);
#2048 = DIRECTION('',(-0.57735026919,-0.57735026919,-0.577350269189));
#2049 = PLANE('',#2050);
#2050 = AXIS2_PLACEMENT_3D('',#2051,#2052,#2053);
#2051 = CARTESIAN_POINT('',(3.51,-0.97,0.599999999995));
#2052 = DIRECTION('',(0.707106781187,-0.707106781187,0.));
#2053 = DIRECTION('',(-0.,-0.,-1.));
#2054 = ADVANCED_FACE('',(#2055),#2066,.F.);
#2055 = FACE_BOUND('',#2056,.F.);
#2056 = EDGE_LOOP('',(#2057,#2058,#2059,#2060));
#2057 = ORIENTED_EDGE('',*,*,#2003,.F.);
#2058 = ORIENTED_EDGE('',*,*,#1657,.T.);
#2059 = ORIENTED_EDGE('',*,*,#1892,.T.);
#2060 = ORIENTED_EDGE('',*,*,#2061,.F.);
#2061 = EDGE_CURVE('',#2004,#1885,#2062,.T.);
#2062 = LINE('',#2063,#2064);
#2063 = CARTESIAN_POINT('',(3.210000000001,-1.27,0.));
#2064 = VECTOR('',#2065,1.);
#2065 = DIRECTION('',(0.,1.,-2.2E-16));
#2066 = PLANE('',#2067);
#2067 = AXIS2_PLACEMENT_3D('',#2068,#2069,#2070);
#2068 = CARTESIAN_POINT('',(3.210000000001,-1.27,0.599999999995));
#2069 = DIRECTION('',(-1.,0.,0.));
#2070 = DIRECTION('',(0.,-2.2E-16,-1.));
#2071 = ADVANCED_FACE('',(#2072),#2090,.F.);
#2072 = FACE_BOUND('',#2073,.F.);
#2073 = EDGE_LOOP('',(#2074,#2075,#2083,#2089));
#2074 = ORIENTED_EDGE('',*,*,#2044,.F.);
#2075 = ORIENTED_EDGE('',*,*,#2076,.T.);
#2076 = EDGE_CURVE('',#2037,#2077,#2079,.T.);
#2077 = VERTEX_POINT('',#2078);
#2078 = CARTESIAN_POINT('',(3.81,0.67,0.949999999995));
#2079 = LINE('',#2080,#2081);
#2080 = CARTESIAN_POINT('',(3.81,-0.67,0.949999999995));
#2081 = VECTOR('',#2082,1.);
#2082 = DIRECTION('',(0.,1.,-2.2E-16));
#2083 = ORIENTED_EDGE('',*,*,#2084,.T.);
#2084 = EDGE_CURVE('',#2077,#1666,#2085,.T.);
#2085 = LINE('',#2086,#2087);
#2086 = CARTESIAN_POINT('',(3.816666666667,0.663333333333,0.956666666662
    ));
#2087 = VECTOR('',#2088,1.);
#2088 = DIRECTION('',(-0.57735026919,0.57735026919,-0.577350269189));
#2089 = ORIENTED_EDGE('',*,*,#1673,.F.);
#2090 = PLANE('',#2091);
#2091 = AXIS2_PLACEMENT_3D('',#2092,#2093,#2094);
#2092 = CARTESIAN_POINT('',(3.635,-0.67,0.774999999996));
#2093 = DIRECTION('',(-0.707106781186,0.,0.707106781187));
#2094 = DIRECTION('',(-1.100000000001E-16,1.,-1.099999999999E-16));
#2095 = ADVANCED_FACE('',(#2096),#2116,.T.);
#2096 = FACE_BOUND('',#2097,.F.);
#2097 = EDGE_LOOP('',(#2098,#2099,#2100,#2108,#2114,#2115));
#2098 = ORIENTED_EDGE('',*,*,#1665,.F.);
#2099 = ORIENTED_EDGE('',*,*,#2084,.F.);
#2100 = ORIENTED_EDGE('',*,*,#2101,.T.);
#2101 = EDGE_CURVE('',#2077,#2102,#2104,.T.);
#2102 = VERTEX_POINT('',#2103);
#2103 = CARTESIAN_POINT('',(3.81,0.67,2.19));
#2104 = LINE('',#2105,#2106);
#2105 = CARTESIAN_POINT('',(3.81,0.67,0.599999999995));
#2106 = VECTOR('',#2107,1.);
#2107 = DIRECTION('',(0.,0.,1.));
#2108 = ORIENTED_EDGE('',*,*,#2109,.F.);
#2109 = EDGE_CURVE('',#1809,#2102,#2110,.T.);
#2110 = LINE('',#2111,#2112);
#2111 = CARTESIAN_POINT('',(4.140000000001,0.339999999999,1.859999999999
    ));
#2112 = VECTOR('',#2113,1.);
#2113 = DIRECTION('',(0.57735026919,-0.57735026919,-0.57735026919));
#2114 = ORIENTED_EDGE('',*,*,#1816,.T.);
#2115 = ORIENTED_EDGE('',*,*,#1898,.F.);
#2116 = PLANE('',#2117);
#2117 = AXIS2_PLACEMENT_3D('',#2118,#2119,#2120);
#2118 = CARTESIAN_POINT('',(3.51,0.97,0.599999999995));
#2119 = DIRECTION('',(0.707106781187,0.707106781187,0.));
#2120 = DIRECTION('',(-0.,-0.,-1.));
#2121 = ADVANCED_FACE('',(#2122),#2138,.F.);
#2122 = FACE_BOUND('',#2123,.F.);
#2123 = EDGE_LOOP('',(#2124,#2125,#2131,#2132));
#2124 = ORIENTED_EDGE('',*,*,#1713,.F.);
#2125 = ORIENTED_EDGE('',*,*,#2126,.T.);
#2126 = EDGE_CURVE('',#1714,#1837,#2127,.T.);
#2127 = LINE('',#2128,#2129);
#2128 = CARTESIAN_POINT('',(2.22,-0.32,0.));
#2129 = VECTOR('',#2130,1.);
#2130 = DIRECTION('',(0.,0.,1.));
#2131 = ORIENTED_EDGE('',*,*,#1834,.F.);
#2132 = ORIENTED_EDGE('',*,*,#2133,.F.);
#2133 = EDGE_CURVE('',#1716,#1835,#2134,.T.);
#2134 = LINE('',#2135,#2136);
#2135 = CARTESIAN_POINT('',(2.22,0.32,0.));
#2136 = VECTOR('',#2137,1.);
#2137 = DIRECTION('',(0.,0.,1.));
#2138 = PLANE('',#2139);
#2139 = AXIS2_PLACEMENT_3D('',#2140,#2141,#2142);
#2140 = CARTESIAN_POINT('',(2.22,-0.32,0.));
#2141 = DIRECTION('',(-1.,0.,0.));
#2142 = DIRECTION('',(0.,1.,0.));
#2143 = ADVANCED_FACE('',(#2144),#2155,.F.);
#2144 = FACE_BOUND('',#2145,.F.);
#2145 = EDGE_LOOP('',(#2146,#2147,#2148,#2149));
#2146 = ORIENTED_EDGE('',*,*,#1739,.F.);
#2147 = ORIENTED_EDGE('',*,*,#2133,.T.);
#2148 = ORIENTED_EDGE('',*,*,#1844,.F.);
#2149 = ORIENTED_EDGE('',*,*,#2150,.F.);
#2150 = EDGE_CURVE('',#1732,#1845,#2151,.T.);
#2151 = LINE('',#2152,#2153);
#2152 = CARTESIAN_POINT('',(2.86,0.32,0.));
#2153 = VECTOR('',#2154,1.);
#2154 = DIRECTION('',(0.,0.,1.));
#2155 = PLANE('',#2156);
#2156 = AXIS2_PLACEMENT_3D('',#2157,#2158,#2159);
#2157 = CARTESIAN_POINT('',(2.22,0.32,0.));
#2158 = DIRECTION('',(0.,1.,0.));
#2159 = DIRECTION('',(1.,0.,0.));
#2160 = ADVANCED_FACE('',(#2161),#2172,.F.);
#2161 = FACE_BOUND('',#2162,.F.);
#2162 = EDGE_LOOP('',(#2163,#2164,#2165,#2166));
#2163 = ORIENTED_EDGE('',*,*,#1731,.F.);
#2164 = ORIENTED_EDGE('',*,*,#2150,.T.);
#2165 = ORIENTED_EDGE('',*,*,#1852,.F.);
#2166 = ORIENTED_EDGE('',*,*,#2167,.F.);
#2167 = EDGE_CURVE('',#1724,#1853,#2168,.T.);
#2168 = LINE('',#2169,#2170);
#2169 = CARTESIAN_POINT('',(2.86,-0.32,0.));
#2170 = VECTOR('',#2171,1.);
#2171 = DIRECTION('',(0.,0.,1.));
#2172 = PLANE('',#2173);
#2173 = AXIS2_PLACEMENT_3D('',#2174,#2175,#2176);
#2174 = CARTESIAN_POINT('',(2.86,0.32,0.));
#2175 = DIRECTION('',(1.,0.,0.));
#2176 = DIRECTION('',(0.,-1.,0.));
#2177 = ADVANCED_FACE('',(#2178),#2184,.F.);
#2178 = FACE_BOUND('',#2179,.F.);
#2179 = EDGE_LOOP('',(#2180,#2181,#2182,#2183));
#2180 = ORIENTED_EDGE('',*,*,#1723,.F.);
#2181 = ORIENTED_EDGE('',*,*,#2167,.T.);
#2182 = ORIENTED_EDGE('',*,*,#1860,.F.);
#2183 = ORIENTED_EDGE('',*,*,#2126,.F.);
#2184 = PLANE('',#2185);
#2185 = AXIS2_PLACEMENT_3D('',#2186,#2187,#2188);
#2186 = CARTESIAN_POINT('',(2.86,-0.32,0.));
#2187 = DIRECTION('',(0.,-1.,0.));
#2188 = DIRECTION('',(-1.,0.,0.));
#2189 = ADVANCED_FACE('',(#2190),#2196,.F.);
#2190 = FACE_BOUND('',#2191,.F.);
#2191 = EDGE_LOOP('',(#2192,#2193,#2194,#2195));
#2192 = ORIENTED_EDGE('',*,*,#1913,.F.);
#2193 = ORIENTED_EDGE('',*,*,#1775,.T.);
#2194 = ORIENTED_EDGE('',*,*,#1987,.T.);
#2195 = ORIENTED_EDGE('',*,*,#1937,.F.);
#2196 = PLANE('',#2197);
#2197 = AXIS2_PLACEMENT_3D('',#2198,#2199,#2200);
#2198 = CARTESIAN_POINT('',(2.54,-4.E-17,0.));
#2199 = DIRECTION('',(0.,0.,1.));
#2200 = DIRECTION('',(1.,0.,0.));
#2201 = ADVANCED_FACE('',(#2202),#2213,.F.);
#2202 = FACE_BOUND('',#2203,.F.);
#2203 = EDGE_LOOP('',(#2204,#2205,#2206,#2207));
#2204 = ORIENTED_EDGE('',*,*,#2028,.F.);
#2205 = ORIENTED_EDGE('',*,*,#1808,.T.);
#2206 = ORIENTED_EDGE('',*,*,#2109,.T.);
#2207 = ORIENTED_EDGE('',*,*,#2208,.F.);
#2208 = EDGE_CURVE('',#2029,#2102,#2209,.T.);
#2209 = LINE('',#2210,#2211);
#2210 = CARTESIAN_POINT('',(3.81,-0.67,2.19));
#2211 = VECTOR('',#2212,1.);
#2212 = DIRECTION('',(0.,1.,0.));
#2213 = PLANE('',#2214);
#2214 = AXIS2_PLACEMENT_3D('',#2215,#2216,#2217);
#2215 = CARTESIAN_POINT('',(3.635,-0.67,2.365));
#2216 = DIRECTION('',(-0.707106781187,0.,-0.707106781187));
#2217 = DIRECTION('',(0.,1.,0.));
#2218 = ADVANCED_FACE('',(#2219),#2225,.F.);
#2219 = FACE_BOUND('',#2220,.F.);
#2220 = EDGE_LOOP('',(#2221,#2222,#2223,#2224));
#2221 = ORIENTED_EDGE('',*,*,#1968,.F.);
#2222 = ORIENTED_EDGE('',*,*,#2011,.T.);
#2223 = ORIENTED_EDGE('',*,*,#2061,.T.);
#2224 = ORIENTED_EDGE('',*,*,#1884,.T.);
#2225 = PLANE('',#2226);
#2226 = AXIS2_PLACEMENT_3D('',#2227,#2228,#2229);
#2227 = CARTESIAN_POINT('',(2.54,-4.E-17,0.));
#2228 = DIRECTION('',(0.,0.,1.));
#2229 = DIRECTION('',(1.,0.,0.));
#2230 = ADVANCED_FACE('',(#2231),#2237,.F.);
#2231 = FACE_BOUND('',#2232,.F.);
#2232 = EDGE_LOOP('',(#2233,#2234,#2235,#2236));
#2233 = ORIENTED_EDGE('',*,*,#2036,.T.);
#2234 = ORIENTED_EDGE('',*,*,#2208,.T.);
#2235 = ORIENTED_EDGE('',*,*,#2101,.F.);
#2236 = ORIENTED_EDGE('',*,*,#2076,.F.);
#2237 = PLANE('',#2238);
#2238 = AXIS2_PLACEMENT_3D('',#2239,#2240,#2241);
#2239 = CARTESIAN_POINT('',(3.81,-1.27,0.));
#2240 = DIRECTION('',(-1.,0.,0.));
#2241 = DIRECTION('',(0.,1.,0.));
#2242 = ( GEOMETRIC_REPRESENTATION_CONTEXT(3) 
GLOBAL_UNCERTAINTY_ASSIGNED_CONTEXT((#2246)) 
GLOBAL_UNIT_ASSIGNED_CONTEXT((#2243,#2244,#2245)) REPRESENTATION_CONTEXT
('Context #1','3D Context with UNIT and UNCERTAINTY') );
#2243 = ( LENGTH_UNIT() NAMED_UNIT(*) SI_UNIT(.MILLI.,.METRE.) );
#2244 = ( NAMED_UNIT(*) PLANE_ANGLE_UNIT() SI_UNIT($,.RADIAN.) );
#2245 = ( NAMED_UNIT(*) SI_UNIT($,.STERADIAN.) SOLID_ANGLE_UNIT() );
#2246 = UNCERTAINTY_MEASURE_WITH_UNIT(LENGTH_MEASURE(1.E-06),#2243,
  'distance_accuracy_value','confusion accuracy');
#2247 = CONTEXT_DEPENDENT_SHAPE_REPRESENTATION(#2248,#2250);
#2248 = ( REPRESENTATION_RELATIONSHIP('','',#739,#10) 
REPRESENTATION_RELATIONSHIP_WITH_TRANSFORMATION(#2249) 
SHAPE_REPRESENTATION_RELATIONSHIP() );
#2249 = ITEM_DEFINED_TRANSFORMATION('','',#11,#19);
#2250 = PRODUCT_DEFINITION_SHAPE('Placement','Placement of an item',
  #2251);
#2251 = NEXT_ASSEMBLY_USAGE_OCCURRENCE('2','Body','',#5,#734,$);
#2252 = PRODUCT_RELATED_PRODUCT_CATEGORY('part',$,(#736));
#2253 = MECHANICAL_DESIGN_GEOMETRIC_PRESENTATION_REPRESENTATION('',(
    #2254),#2242);
#2254 = STYLED_ITEM('color',(#2255),#740);
#2255 = PRESENTATION_STYLE_ASSIGNMENT((#2256,#2262));
#2256 = SURFACE_STYLE_USAGE(.BOTH.,#2257);
#2257 = SURFACE_SIDE_STYLE('',(#2258));
#2258 = SURFACE_STYLE_FILL_AREA(#2259);
#2259 = FILL_AREA_STYLE('',(#2260));
#2260 = FILL_AREA_STYLE_COLOUR('',#2261);
#2261 = COLOUR_RGB('',0.215686275495,0.282352953742,0.333333345507);
#2262 = CURVE_STYLE('',#2263,POSITIVE_LENGTH_MEASURE(0.1),#2264);
#2263 = DRAUGHTING_PRE_DEFINED_CURVE_FONT('continuous');
#2264 = COLOUR_RGB('',9.803921802644E-02,9.803921802644E-02,
  9.803921802644E-02);
#2265 = MECHANICAL_DESIGN_GEOMETRIC_PRESENTATION_REPRESENTATION('',(
    #2266,#2276),#721);
#2266 = STYLED_ITEM('color',(#2267),#37);
#2267 = PRESENTATION_STYLE_ASSIGNMENT((#2268,#2274));
#2268 = SURFACE_STYLE_USAGE(.BOTH.,#2269);
#2269 = SURFACE_SIDE_STYLE('',(#2270));
#2270 = SURFACE_STYLE_FILL_AREA(#2271);
#2271 = FILL_AREA_STYLE('',(#2272));
#2272 = FILL_AREA_STYLE_COLOUR('',#2273);
#2273 = COLOUR_RGB('',0.780392170416,0.568627474046,0.113725493293);
#2274 = CURVE_STYLE('',#2275,POSITIVE_LENGTH_MEASURE(0.1),#2264);
#2275 = DRAUGHTING_PRE_DEFINED_CURVE_FONT('continuous');
#2276 = STYLED_ITEM('color',(#2277),#379);
#2277 = PRESENTATION_STYLE_ASSIGNMENT((#2278,#2283));
#2278 = SURFACE_STYLE_USAGE(.BOTH.,#2279);
#2279 = SURFACE_SIDE_STYLE('',(#2280));
#2280 = SURFACE_STYLE_FILL_AREA(#2281);
#2281 = FILL_AREA_STYLE('',(#2282));
#2282 = FILL_AREA_STYLE_COLOUR('',#2273);
#2283 = CURVE_STYLE('',#2284,POSITIVE_LENGTH_MEASURE(0.1),#2264);
#2284 = DRAUGHTING_PRE_DEFINED_CURVE_FONT('continuous');
ENDSEC;
END-ISO-10303-21;
